<?xml version="1.0" encoding="utf-8"?>
<!-- Generator: Adobe Illustrator 19.2.1, SVG Export Plug-In . SVG Version: 6.00 Build 0)  -->
<svg version="1.0" id="Layer_1" xmlns="http://www.w3.org/2000/svg" xmlns:xlink="http://www.w3.org/1999/xlink" x="0px" y="0px"
	 viewBox="0 0 36.6 36.6" style="enable-background:new 0 0 36.6 36.6;" xml:space="preserve">
<path id="email.svg" style="fill:#47B946;" d="M28.1,23.1V8.4h-5.8v1.9l-0.6-0.6c-0.5-0.5-1.2-0.9-1.8-1.2c-0.8-0.4-1.8-0.6-2.7-0.6
	c-2.7-0.1-5.2,1-6.9,3.1c-1.8,2.1-2.7,4.9-2.6,7.6c-0.1,2.8,0.9,5.5,2.9,7.5c1.7,1.9,4.2,3,6.8,2.9c2.5,0,4.9-1.2,6.4-3.3
	c0.4,1.1,1.1,2,2,2.7s2,1.1,3.2,1.1c2.2,0,4.3-1.1,5.5-3.1c1.5-2.4,2.2-5.3,2.1-8.1c0.1-4.9-1.7-9.6-5.2-13.1
	C28,1.7,23.4-0.2,18.6,0C8.3,0,0,8.3,0,18.6c-0.1,4.8,1.7,9.5,5.2,12.8c3.4,3.4,8.1,5.3,12.9,5.1c1.8,0,3.7-0.4,5.4-1
	c1.7-0.6,3.3-1.4,4.7-2.6l-1.9-3.3c-2.2,2.2-5.1,3.4-8.2,3.4c-3.8,0.1-7.4-1.4-10-4.1c-2.7-2.8-4.1-6.5-4-10.4
	c-0.1-4,1.5-7.9,4.3-10.7c2.7-2.9,6.5-4.5,10.5-4.5c3.8-0.2,7.5,1.4,10,4.3c2.5,3,3.9,6.8,3.7,10.7c0.1,1.7-0.3,3.4-0.9,5
	c-0.6,1.3-1.4,2-2.2,2C28.5,25.4,28.1,24.6,28.1,23.1L28.1,23.1L28.1,23.1z M21.2,22.3c-0.7,1-1.9,1.6-3.2,1.6
	c-1.3,0-2.5-0.6-3.2-1.7c-0.8-1.1-1.2-2.5-1.2-3.9c0-1.3,0.4-2.7,1.2-3.7c0.7-1,1.9-1.6,3.2-1.5c1.2,0,2.4,0.5,3.2,1.5
	c0.8,1.1,1.3,2.4,1.2,3.8C22.4,19.8,22,21.2,21.2,22.3L21.2,22.3z"/>
</svg>
