<?xml version="1.0" encoding="utf-8"?>
<!-- Generator: Adobe Illustrator 19.2.1, SVG Export Plug-In . SVG Version: 6.00 Build 0)  -->
<svg version="1.0" id="Layer_1" xmlns="http://www.w3.org/2000/svg" xmlns:xlink="http://www.w3.org/1999/xlink" x="0px" y="0px"
	 viewBox="0 0 41.5 40" style="enable-background:new 0 0 41.5 40;" xml:space="preserve">
<path style="fill:#DD4B39;" d="M1.1,28.9c3.5-5,10.3-5.4,13.7-4.9c-0.9-1-3.3-2.9-1.6-5.9c-7.6,0.9-10-3.7-10.3-7.4
	C2.2,4.5,7.5,0.1,13,0h12.2c-0.4,0.4-2.4,1.7-2.9,1.7h-3.2c8.2,7.7,0.2,14.1-1.4,15.5c-3.3,4,7,5.9,6.4,12.7C24.2,36,19,40,11,40
	C2.1,40-2.2,34.4,1.1,28.9L1.1,28.9z M19,36.3c3.2-2.4,2.4-6.1,0-8.5c-1.5-1.4-3.3-2.8-7.1-2.4c-4.4,0.5-7.7,2.7-7.5,6
	C5.3,38.5,15.6,38.7,19,36.3L19,36.3L19,36.3z M16.8,15.4c3.7-3,0.3-13.6-4.8-13.6c-3.2,0-4.9,2.3-5,5.6
	C6.8,13.4,12.4,19.1,16.8,15.4z M33.2,19.3h-5.6v-2.8h5.5V11h2.8v5.5h5.6v2.8h-5.6v5.5h-2.8L33.2,19.3L33.2,19.3z"/>
</svg>
