<?xml version="1.0" encoding="utf-8"?>
<!-- Generator: Adobe Illustrator 19.2.1, SVG Export Plug-In . SVG Version: 6.00 Build 0)  -->
<svg version="1.0" id="Layer_1" xmlns="http://www.w3.org/2000/svg" xmlns:xlink="http://www.w3.org/1999/xlink" x="0px" y="0px"
	 viewBox="0 0 38.8 39" style="enable-background:new 0 0 38.8 39;" xml:space="preserve">
<radialGradient id="SVGID_1_" cx="-3609.8237" cy="-832.6446" r="23.0695" gradientTransform="matrix(4.489659e-011 -1 -1 -4.489659e-011 -818.8346 -3576.5847)" gradientUnits="userSpaceOnUse">
	<stop  offset="0" style="stop-color:#FFDD55"/>
	<stop  offset="0.1" style="stop-color:#FFDD55"/>
	<stop  offset="0.5" style="stop-color:#FF543E"/>
	<stop  offset="1" style="stop-color:#C837AB"/>
</radialGradient>
<path style="fill:url(#SVGID_1_);" d="M30.7,11c-0.3-0.7-0.6-1.2-1.1-1.7s-1-0.8-1.7-1.1c-0.5-0.2-1.3-0.4-2.7-0.5
	c-1.5-0.1-2-0.1-5.8-0.1c-0.5,0-0.9,0-1.3,0c-2.7,0-3.2,0-4.5,0.1c-1.4,0.1-2.2,0.3-2.7,0.5c-0.7,0.3-1.2,0.6-1.7,1.1
	s-0.8,1-1.1,1.7c-0.2,0.5-0.4,1.3-0.5,2.7c-0.1,1.5-0.1,2-0.1,5.8s0,4.3,0.1,5.8c0.1,1.4,0.3,2.2,0.5,2.7c0.3,0.7,0.6,1.2,1.1,1.7
	s1,0.8,1.7,1.1c0.5,0.2,1.3,0.4,2.7,0.5c1.5,0.1,2,0.1,5.8,0.1s4.3,0,5.8-0.1c1.4-0.1,2.2-0.3,2.7-0.5c0.7-0.3,1.2-0.6,1.7-1.1
	s0.8-1,1.1-1.7c0.2-0.5,0.4-1.3,0.5-2.7c0.1-1.5,0.1-2,0.1-5.8s0-4.3-0.1-5.8C31.1,12.3,30.9,11.5,30.7,11z M19.4,26.8
	c-4.1,0-7.4-3.3-7.4-7.4s3.3-7.4,7.4-7.4s7.4,3.3,7.4,7.4S23.5,26.8,19.4,26.8z M27.1,13.4c-0.9,0-1.7-0.7-1.7-1.7
	c0-0.9,0.7-1.7,1.7-1.7c0.9,0,1.7,0.8,1.7,1.7C28.8,12.6,28,13.4,27.1,13.4z"/>
<radialGradient id="SVGID_2_" cx="-3618.5986" cy="-829.1506" r="37.7417" gradientTransform="matrix(4.489659e-011 -1 -1 -4.489659e-011 -818.8346 -3576.5847)" gradientUnits="userSpaceOnUse">
	<stop  offset="0" style="stop-color:#FFDD55"/>
	<stop  offset="0.1" style="stop-color:#FFDD55"/>
	<stop  offset="0.5" style="stop-color:#FF543E"/>
	<stop  offset="1" style="stop-color:#C837AB"/>
</radialGradient>
<path style="fill:url(#SVGID_2_);" d="M37.9,4.8c-0.4-0.9-0.9-1.6-1.7-2.3c-1.3-1.2-2.9-2-4.7-2.3C30.7,0,30.5,0,25.9,0h-6.4
	C11.4,0,9,0,8.5,0C6.9,0.2,5.8,0.4,4.7,1C3.8,1.4,3.1,1.9,2.4,2.7C1.2,4,0.4,5.6,0.1,7.4C0,8.3,0,8.5,0,13.2c0,1.6,0,3.6,0,6.3
	c0,8.1,0,10.5,0,11c0.1,1.6,0.4,2.6,0.9,3.8c1,2.1,3,3.8,5.3,4.4C7.2,38.9,8,39,9.1,39c0.5,0,5.4,0,10.3,0s9.9,0,10.3,0
	c1.3-0.1,2.1-0.2,2.9-0.4c2.3-0.6,4.3-2.2,5.3-4.4c0.5-1.1,0.8-2.2,0.9-3.7c0-0.3,0-5.7,0-11c0-5.4,0-10.7,0-11
	C38.7,6.9,38.4,5.9,37.9,4.8z M33.9,25.4c-0.1,1.5-0.3,2.6-0.7,3.5c-0.4,1-0.9,1.8-1.7,2.6c-0.8,0.8-1.6,1.3-2.5,1.7s-2,0.6-3.5,0.7
	C24,34,23.5,34,19.6,34s-4.4,0-5.9-0.1s-2.6-0.3-3.5-0.7c-1-0.4-1.8-0.9-2.6-1.7s-1.3-1.7-1.7-2.6S5.3,27,5.1,25.4
	C5,23.9,5,23.4,5,19.5s0-4.4,0.1-5.9s0.3-2.6,0.7-3.5c0.4-1,0.9-1.8,1.7-2.6s1.6-1.3,2.6-1.6C11,5.5,12,5.3,13.6,5.2
	c1.5-0.1,2-0.1,5.9-0.1s4.4,0,5.9,0c1.5,0.1,2.6,0.3,3.5,0.7c1,0.4,1.8,0.9,2.6,1.7c0.8,0.8,1.3,1.7,1.7,2.6s0.6,2,0.7,3.5
	c0.1,1.5,0.1,2,0.1,5.9S34,23.9,33.9,25.4z"/>
<radialGradient id="SVGID_3_" cx="-3601.5996" cy="-836.0248" r="9.3053" gradientTransform="matrix(4.489659e-011 -1 -1 -4.489659e-011 -818.8346 -3576.5847)" gradientUnits="userSpaceOnUse">
	<stop  offset="0" style="stop-color:#FFDD55"/>
	<stop  offset="0.1" style="stop-color:#FFDD55"/>
	<stop  offset="0.5" style="stop-color:#FF543E"/>
	<stop  offset="1" style="stop-color:#C837AB"/>
</radialGradient>
<path style="fill:url(#SVGID_3_);" d="M21.5,15.2c-4.1-1.9-8.3,2.3-6.4,6.4c0.7,1.5,2.2,2.6,3.9,2.7c3.1,0.3,5.5-2.2,5.2-5.2
	C24.1,17.4,23,15.9,21.5,15.2z"/>
<radialGradient id="SVGID_4_" cx="454.2954" cy="1087.5237" r="19.5016" gradientTransform="matrix(0.1739 0.8687 3.5818 -0.7172 -4415.9824 -78.249)" gradientUnits="userSpaceOnUse">
	<stop  offset="0" style="stop-color:#3771C8"/>
	<stop  offset="0.128" style="stop-color:#3771C8"/>
	<stop  offset="1" style="stop-color:#6600FF;stop-opacity:0"/>
</radialGradient>
<path style="display:none;fill:url(#SVGID_4_);" d="M-415.6-466.4c-8.1,0-10.5,0-11,0c-1.6,0.2-2.7,0.4-3.8,1
	c-0.9,0.4-1.6,0.9-2.3,1.7c-1.2,1.3-2,2.9-2.3,4.7c-0.1,0.9-0.1,1.1-0.1,5.8c0,1.6,0,3.6,0,6.3c0,8.1,0,10.5,0,11
	c0.1,1.6,0.4,2.6,0.9,3.8c1,2.1,3,3.8,5.3,4.4c0.9,0.1,1.8,0.2,2.9,0.3c0.5,0,5.4,0,10.3,0s9.9,0,10.3,0c1.3-0.1,2.1-0.2,2.9-0.4
	c2.3-0.6,4.3-2.2,5.3-4.4c0.5-1.1,0.8-2.2,0.9-3.7c0-0.3,0-5.7,0-11c0-5.4,0-10.7,0-11c-0.1-1.6-0.4-2.6-0.9-3.7
	c-0.4-0.9-0.9-1.6-1.7-2.3c-1.3-1.2-2.9-2-4.7-2.3c-0.8-0.2-1-0.2-5.6-0.2L-415.6-466.4L-415.6-466.4z"/>
</svg>
