<?xml version="1.0" encoding="utf-8"?>
<!-- Generator: Adobe Illustrator 19.2.1, SVG Export Plug-In . SVG Version: 6.00 Build 0)  -->
<svg version="1.0" id="silver.svg" xmlns="http://www.w3.org/2000/svg" xmlns:xlink="http://www.w3.org/1999/xlink" x="0px" y="0px"
	 viewBox="0 0 53 58" style="enable-background:new 0 0 53 58;" xml:space="preserve">
<path id="Shape_1149_copy_4" style="fill:#E5EBF7;" d="M51.6,13.7L27.9,0.4c-0.9-0.5-2-0.5-2.9,0L1.4,13.7C0.6,14.2,0,15.2,0,16.2
	v25.7c0,1,0.6,1.9,1.4,2.4l23.6,13.3c0.9,0.5,2,0.5,2.9,0l23.6-13.3c0.9-0.5,1.4-1.4,1.4-2.4V16.2C53,15.2,52.4,14.2,51.6,13.7z"/>
<path id="Shape_1149_copy_4-2" style="fill:#BDCDDF;" d="M44.9,18.1L27.6,8.3c-0.7-0.4-1.5-0.4-2.1,0L8.1,18.1
	c-0.7,0.4-1.1,1-1.1,1.8v18.3c0,0.7,0.4,1.4,1.1,1.8l17.4,9.8c0.7,0.4,1.5,0.4,2.1,0L44.9,40c0.7-0.4,1.1-1,1.1-1.8V19.9
	C46,19.1,45.6,18.4,44.9,18.1z"/>
</svg>
