<?xml version="1.0" encoding="utf-8"?>
<!-- Generator: Adobe Illustrator 19.2.1, SVG Export Plug-In . SVG Version: 6.00 Build 0)  -->
<svg version="1.0" id="steel.svg" xmlns="http://www.w3.org/2000/svg" xmlns:xlink="http://www.w3.org/1999/xlink" x="0px" y="0px"
	 viewBox="0 0 42 47" style="enable-background:new 0 0 42 47;" xml:space="preserve">
<path style="fill:#D0E2FB;" d="M40.9,10.9L22.1,0.3c-0.7-0.4-1.6-0.4-2.3,0L1.1,10.9C0.4,11.3,0,12.1,0,12.9v21.3
	c0,0.8,0.4,1.6,1.1,1.9l18.7,10.6c0.7,0.4,1.6,0.4,2.3,0l18.7-10.6c0.7-0.4,1.1-1.1,1.1-1.9V12.9C42,12.1,41.6,11.3,40.9,10.9z"/>
<path id="Shape_1149_copy_2" style="fill:#ADCAF2;" d="M35.2,14.9L21.8,7.2c-0.5-0.3-1.1-0.3-1.6,0L6.8,14.9C6.3,15.2,6,15.7,6,16.3
	v14.4c0,0.6,0.3,1.1,0.8,1.4l13.4,7.7c0.5,0.3,1.1,0.3,1.6,0l13.4-7.7c0.5-0.3,0.8-0.8,0.8-1.4V16.3C36,15.7,35.7,15.2,35.2,14.9z"
	/>
</svg>
