<svg xmlns="http://www.w3.org/2000/svg" width="23" height="23"><path d="M0 23V0h23v23H0zm11.682-6a1.3 1.3 0 10-1.311-1.3 1.3 1.3 0 001.311 1.3zm3.893-10.35a3.172 3.172 0 00-1.481-1.22 5.923 5.923 0 00-2.28-.43 4.593 4.593 0 00-1.554.3 3.8 3.8 0 00-1.835 1.4 2.3 2.3 0 00-.424 1.29.937.937 0 00.283.73 1.035 1.035 0 00.528.25 1.066 1.066 0 001.172-.44c.16-.25.285-.53.424-.8a1.486 1.486 0 01.86-.78 2.218 2.218 0 011.085-.06 1.719 1.719 0 01.659.26 1.4 1.4 0 01.324 1.77 3.7 3.7 0 01-.868.89 9.93 9.93 0 00-1.277 1.09 1.9 1.9 0 00-.546 1.29 1.038 1.038 0 001.191 1.11.86.86 0 00.824-.56c.064-.15.128-.3.194-.46a1.369 1.369 0 01.389-.55c.259-.21.518-.41.784-.6a9.021 9.021 0 001.037-.83 2.953 2.953 0 00.849-1.36 2.9 2.9 0 00-.338-2.29z" fill="#8296a6" fill-rule="evenodd"/></svg>