<svg xmlns="http://www.w3.org/2000/svg" viewBox="0 0 40.3 38"><path d="M20.2 0c-.9 0-1.8.5-2.3 1.3-1.7 3.2-3.2 6.6-4.8 9.9-3.1.4-6.2.8-9.3 1.1-1.1.2-2.3.1-3.1 1-1 1.1-.9 2.7.2 3.7 2.6 2.5 5.3 4.9 7.9 7.3-.6 3.1-1.2 6.1-1.8 9.2-.1 1-.5 2 0 2.9 0 .1.1.2.1.3.5.8 1.4 1.3 2.3 1.3.5 0 1-.1 1.5-.4 3.1-1.6 6.2-3.4 9.3-5 3.2 1.7 6.4 3.5 9.6 5.2.4.2.8.3 1.2.3h.4c1.4-.2 2.4-1.6 2.2-3.1-.6-3.5-1.4-7-2-10.5 2.7-2.5 5.5-4.9 8.1-7.5.3-.4.5-.8.6-1.3.2-1.4-.8-2.8-2.2-3-3.6-.5-7.2-.9-10.8-1.4-1.6-3.2-3-6.5-4.6-9.7-.2-.5-.6-.8-1-1.1-.6-.4-1.1-.5-1.5-.5z" fill="#e1e2e5"/></svg>