<svg xmlns="http://www.w3.org/2000/svg" viewBox="0 0 40.3 38"><linearGradient id="a" gradientUnits="userSpaceOnUse" x1="20.167" y1="0" x2="20.167" y2="38.1"><stop offset="0" stop-color="#fcda55"/><stop offset="1" stop-color="#faac42"/></linearGradient><path d="M20.2 1c.3 0 .6.1.9.2.3.2.5.4.6.7 1 1.9 1.9 3.8 2.8 5.7.6 1.3 1.2 2.6 1.9 3.9l.2.5.5.1c1.5.2 3.1.4 4.6.6 2.1.2 4.2.5 6.3.8.4.1.8.3 1.1.6s.4.8.3 1.2c0 .3-.2.6-.4.8-1.6 1.6-3.3 3.1-5 4.6-1 .9-2.1 1.9-3.1 2.8l-.4.5.1.5c.3 1.6.6 3.2.9 4.7.4 1.9.8 3.9 1.1 5.8.2.9-.4 1.8-1.3 1.9H31c-.3 0-.5-.1-.7-.2-1.9-1-3.8-2-5.6-3-1.3-.7-2.7-1.5-4-2.2l-.5-.2m0-31.3c-.9 0-1.8.5-2.3 1.3-1.7 3.2-3.2 6.6-4.8 9.9-3.1.4-6.2.8-9.3 1.1-1.1.2-2.3.1-3.1 1-1 1.1-.9 2.7.2 3.7 2.6 2.5 5.3 4.9 7.9 7.3-.6 3.1-1.2 6.1-1.8 9.2-.1 1-.5 2 0 2.9 0 .1.1.2.1.3.5.8 1.4 1.3 2.3 1.3.5 0 1-.1 1.5-.4 3.1-1.6 6.2-3.4 9.3-5 3.2 1.7 6.4 3.5 9.6 5.2.4.2.8.3 1.2.3h.4c1.4-.2 2.4-1.6 2.2-3.1-.6-3.5-1.4-7-2-10.5 2.7-2.5 5.5-4.9 8.1-7.5.3-.4.5-.8.6-1.3.2-1.4-.8-2.8-2.2-3-3.6-.5-7.2-.9-10.8-1.4-1.6-3.2-3-6.5-4.6-9.7-.2-.5-.6-.8-1-1.1-.6-.4-1.1-.5-1.5-.5z" fill="url(#a)"/></svg>