<svg width="768" height="768" viewBox="0 0 768 768" fill="none" xmlns="http://www.w3.org/2000/svg">
<path d="M158.215 702.664C157.122 731.523 171.867 742.008 194.527 732.696C201.069 729.811 206.628 726.761 211.887 723.283L211.46 723.549C376.094 623.748 540.548 523.92 704.82 424.063C747.138 398.289 747.413 370.686 705.092 345.05C551.923 251.929 398.573 158.8 245.042 65.661C228.933 55.833 213.097 45.265 196.17 36.966C192.139 33.868 187.021 32 181.468 32C168.078 32 157.223 42.855 157.223 56.245C157.223 58.697 157.587 61.066 158.264 63.294L158.22 63.121C158.531 67.905 159.114 72.303 159.965 76.61L159.852 75.958C172.138 146.262 184.151 216.703 197.257 286.873C203.589 315.927 207.215 349.301 207.215 383.522C207.215 406.499 205.579 429.095 202.421 451.199L202.718 448.666C194.8 499.23 185.244 549.494 176.234 599.897C169.955 635.446 163.669 671.129 158.214 702.664H158.215Z" fill="white"/>
</svg>
