<svg width="768" height="768" viewBox="0 0 768 768" fill="none" xmlns="http://www.w3.org/2000/svg">
<path d="M610.535 702.527C611.599 731.39 596.881 741.876 574.19 732.564C567.588 729.635 562.004 726.58 556.704 723.127L557.179 723.416C392.74 623.602 228.329 523.761 63.9457 423.894C21.4847 398.117 21.3467 370.51 63.5627 344.87C216.933 251.737 370.312 158.596 523.7 65.445C539.893 55.616 555.73 45.047 572.66 36.746C576.688 33.63 581.811 31.752 587.372 31.752C600.718 31.752 611.538 42.571 611.538 55.918C611.538 58.411 611.161 60.815 610.46 63.077L610.505 62.905C610.176 67.749 609.622 72.151 608.839 76.473L608.949 75.739C596.552 146.052 584.729 216.502 571.484 286.68C565.126 315.709 561.485 349.054 561.485 383.25C561.485 406.264 563.134 428.893 566.322 451.025L566.023 448.496C573.969 499.068 583.718 549.337 592.619 599.746C598.846 635.299 605.017 670.988 610.533 702.527H610.535Z" fill="#354C5E"/>
</svg>
