<svg xmlns="http://www.w3.org/2000/svg" width="64" height="64"><path d="M0 31.922a31.983 31.983 0 0057.953 18.766l-5.524-3.2a25.684 25.684 0 01-43.875-26.03l2.773 2.142 2.239-14.16L.468 15.2l2.952 2.284A32 32 0 000 31.922zM50.084 5.457A31.768 31.768 0 0035.168 0v6.392a25.469 25.469 0 0110.819 3.96zm12.752 17.869A32.056 32.056 0 0054.93 9.55l-4.1 4.9a25.707 25.707 0 015.727 9.989zm-5.173 8.6A25.694 25.694 0 0155.617 42l5.521 3.2A32.024 32.024 0 0064 31.922q0-1.179-.085-2.337L57.634 30.7c.019.4.029.811.029 1.222z" fill="#46b846" fill-rule="evenodd"/></svg>