<svg width="114" height="157" viewBox="0 0 114 157" fill="none" xmlns="http://www.w3.org/2000/svg">
<path fill-rule="evenodd" clip-rule="evenodd" d="M85.128 0H0V156.99H114V30.522L85.128 0ZM86.391 7.79999L106.626 29.192H86.391V7.79999ZM4.453 152.568V4.422H81.938V33.609H109.547V152.568H4.453V152.568Z" fill="white"/>
<path d="M57.5 138C76.0015 138 91 123.002 91 104.5C91 85.9985 76.0015 71 57.5 71C38.9985 71 24 85.9985 24 104.5C24 123.002 38.9985 138 57.5 138Z" fill="#1A70C5"/>
<path fill-rule="evenodd" clip-rule="evenodd" d="M45.344 109.639L56.578 123.559C56.6868 123.697 56.8253 123.808 56.9833 123.885C57.1412 123.961 57.3145 124.001 57.49 124.001C57.6655 124.001 57.8388 123.961 57.9967 123.885C58.1547 123.808 58.2932 123.697 58.402 123.559L69.636 109.639C69.8117 109.452 69.9302 109.218 69.9777 108.965C70.0251 108.713 69.9995 108.452 69.9038 108.213C69.8082 107.975 69.6464 107.769 69.4376 107.619C69.2288 107.469 68.9816 107.382 68.725 107.368H64.011V86.3171C64.0129 85.9706 63.8789 85.6372 63.6377 85.3885C63.3965 85.1399 63.0674 84.9957 62.721 84.9871H52.259C51.9126 84.9957 51.5835 85.1399 51.3423 85.3885C51.1011 85.6372 50.9671 85.9706 50.969 86.3171V107.368H46.255C45.9984 107.382 45.7512 107.469 45.5424 107.619C45.3336 107.769 45.1718 107.975 45.0762 108.213C44.9805 108.452 44.9549 108.713 45.0023 108.965C45.0498 109.218 45.1683 109.452 45.344 109.639V109.639Z" fill="white"/>
</svg>
