<svg xmlns="http://www.w3.org/2000/svg" width="164.97" height="156.969"><path d="M146.73 125.321a18.248 18.248 0 0018.24-18.251V18.249a18.247 18.247 0 00-18.24-18.25H18.252A18.244 18.244 0 00.014 18.249v88.82a18.244 18.244 0 0018.238 18.251h48.433v27.579h-23.3a2.028 2.028 0 000 4.055H121.6a2.028 2.028 0 100-4.055H98.3v-27.578h48.432zM4.067 18.249A14.191 14.191 0 0118.252 4.054H146.73a14.191 14.191 0 0114.19 14.195v72.6H4.067v-72.6zM94.245 152.9H70.738v-27.579h23.507V152.9zm-75.993-31.631a14.19 14.19 0 01-14.185-14.2V94.903H160.92v12.166a14.19 14.19 0 01-14.19 14.2H18.252z" fill-rule="evenodd" fill="#fff"/><path d="M66.464 52.561L81.3 70.39a1.563 1.563 0 002.409 0l14.84-17.829a1.721 1.721 0 00-1.2-2.908h-6.227V22.689a1.72 1.72 0 00-1.7-1.7H75.6a1.72 1.72 0 00-1.705 1.7v26.964h-6.226a1.72 1.72 0 00-1.205 2.908zM68.5 73.969h28a2.5 2.5 0 010 5h-28a2.5 2.5 0 010-5z" fill="#1a70c5" fill-rule="evenodd"/></svg>