<svg width="179" height="157" viewBox="0 0 179 157" fill="none" xmlns="http://www.w3.org/2000/svg">
<path d="M128.978 128C155.484 128 176.97 106.734 176.97 80.5C176.97 54.2665 155.484 33 128.978 33C102.473 33 80.9864 54.2665 80.9864 80.5C80.9864 106.734 102.473 128 128.978 128Z" stroke="white" stroke-width="4" stroke-linejoin="round"/>
<path fill-rule="evenodd" clip-rule="evenodd" d="M177.97 14.0105L142.07 105.233L119.98 106L153.254 13H177.97V14.0105Z" fill="#0451C6"/>
<path fill-rule="evenodd" clip-rule="evenodd" d="M132.897 80.1818L133.027 79.8145L142.249 106H144.976H119.495L97.9836 51H122.753L132.897 80.1818Z" fill="#1584E6"/>
<path fill-rule="evenodd" clip-rule="evenodd" d="M51.2815 54.914H41.0979V95.3045C41.0921 95.9808 40.7955 96.6278 40.2719 97.106C39.7484 97.5842 39.04 97.8552 38.2997 97.8605H15.6839C14.9451 97.8533 14.2389 97.5814 13.7174 97.1034C13.1959 96.6253 12.9008 95.9794 12.8956 95.3045V54.914H2.70203C0.103666 54.914 -0.765787 52.201 0.73327 50.556L25.018 23.849C25.2582 23.5834 25.5597 23.3696 25.9009 23.2229C26.2421 23.0761 26.6146 23 26.9918 23C27.3689 23 27.7414 23.0761 28.0826 23.2229C28.4238 23.3696 28.7253 23.5834 28.9655 23.849C37.0604 32.7517 45.1587 41.654 53.2602 50.556C54.7593 52.201 53.8799 54.914 51.2815 54.914ZM14.5146 102.399C14.7115 102.399 14.9064 102.435 15.0883 102.503C15.2701 102.572 15.4354 102.673 15.5746 102.8C15.7138 102.927 15.8242 103.078 15.8996 103.244C15.9749 103.411 16.0137 103.589 16.0137 103.768V136.631C16.0137 136.994 15.8557 137.342 15.5746 137.599C15.2935 137.856 14.9122 138 14.5146 138C14.117 138 13.7357 137.856 13.4546 137.599C13.1735 137.342 13.0155 136.994 13.0155 136.631V103.768C13.0155 103.405 13.1735 103.057 13.4546 102.8C13.7357 102.543 14.117 102.399 14.5146 102.399V102.399ZM20.5108 102.399C20.9084 102.399 21.2897 102.543 21.5708 102.8C21.852 103.057 22.0099 103.405 22.0099 103.768V127.502C22.0099 127.865 21.852 128.214 21.5708 128.471C21.2897 128.727 20.9084 128.872 20.5108 128.872C20.1133 128.872 19.732 128.727 19.4508 128.471C19.1697 128.214 19.0118 127.865 19.0118 127.502V103.768C19.0118 103.405 19.1697 103.057 19.4508 102.8C19.732 102.543 20.1133 102.399 20.5108 102.399ZM27.5064 102.399C27.904 102.399 28.2853 102.543 28.5664 102.8C28.8476 103.057 29.0055 103.405 29.0055 103.768V122.938C29.0055 123.301 28.8476 123.65 28.5664 123.906C28.2853 124.163 27.904 124.307 27.5064 124.307C27.1089 124.307 26.7276 124.163 26.4464 123.906C26.1653 123.65 26.0074 123.301 26.0074 122.938V103.768C26.0074 103.405 26.1653 103.057 26.4464 102.8C26.7276 102.543 27.1089 102.399 27.5064 102.399V102.399ZM33.5027 102.399C33.9002 102.399 34.2815 102.543 34.5627 102.8C34.8438 103.057 35.0017 103.405 35.0017 103.768V118.374C35.0017 118.737 34.8438 119.085 34.5627 119.342C34.2815 119.599 33.9002 119.743 33.5027 119.743C33.1051 119.743 32.7238 119.599 32.4427 119.342C32.1615 119.085 32.0036 118.737 32.0036 118.374V103.768C32.0036 103.405 32.1615 103.057 32.4427 102.8C32.7238 102.543 33.1051 102.399 33.5027 102.399V102.399ZM39.4989 102.399C39.8965 102.399 40.2778 102.543 40.5589 102.8C40.84 103.057 40.998 103.405 40.998 103.768V118.374C40.998 118.737 40.84 119.085 40.5589 119.342C40.2778 119.599 39.8965 119.743 39.4989 119.743C39.1013 119.743 38.72 119.599 38.4389 119.342C38.1578 119.085 37.9998 118.737 37.9998 118.374V103.768C37.9998 103.405 38.1578 103.057 38.4389 102.8C38.72 102.543 39.1013 102.399 39.4989 102.399V102.399Z" fill="#1A70C5"/>
</svg>
