<svg width="165" height="157" viewBox="0 0 165 157" fill="none" xmlns="http://www.w3.org/2000/svg">
<g clip-path="url(#clip0)">
<path fill-rule="evenodd" clip-rule="evenodd" d="M146.757 125.346C151.596 125.344 156.237 123.419 159.658 119.996C163.079 116.573 165.001 111.931 165 107.091V18.2526C165.001 13.413 163.079 8.77114 159.658 5.34804C156.237 1.92494 151.596 0.000879988 146.757 -0.000976562H18.2553C15.859 -0.000188605 13.4864 0.47258 11.2728 1.39034C9.05926 2.30809 7.04814 3.65286 5.35427 5.34787C3.66041 7.04287 2.31698 9.05491 1.4007 11.2691C0.484413 13.4833 0.0132131 15.8563 0.0140013 18.2526V107.09C0.0130817 109.487 0.484185 111.86 1.40041 114.074C2.31664 116.288 3.66004 118.3 5.35392 119.996C7.0478 121.691 9.05897 123.036 11.2726 123.953C13.4862 124.871 15.859 125.344 18.2553 125.345H66.6971V152.929H43.3929C42.8629 152.941 42.3585 153.16 41.9878 153.539C41.6171 153.918 41.4096 154.427 41.4096 154.957C41.4096 155.487 41.6171 155.996 41.9878 156.375C42.3585 156.754 42.8629 156.973 43.3929 156.985H121.622C121.892 156.991 122.161 156.943 122.412 156.844C122.663 156.745 122.892 156.596 123.085 156.407C123.279 156.218 123.432 155.993 123.537 155.744C123.642 155.495 123.696 155.227 123.696 154.957C123.696 154.687 123.642 154.42 123.537 154.171C123.432 153.921 123.279 153.696 123.085 153.507C122.892 153.318 122.663 153.17 122.412 153.07C122.161 152.971 121.892 152.923 121.622 152.929H98.3179V125.346H146.759H146.757ZM4.06774 18.2526C4.06668 14.4885 5.56077 10.8782 8.2214 8.21563C10.882 5.55308 14.4913 4.05642 18.2553 4.05482H146.757C148.621 4.05496 150.467 4.42232 152.189 5.13593C153.911 5.84955 155.476 6.89543 156.794 8.21386C158.112 9.53229 159.157 11.0974 159.87 12.8199C160.583 14.5424 160.95 16.3884 160.949 18.2526V90.867H4.06774V18.2526V18.2526ZM94.2621 152.93H70.7509V125.346H94.2621V152.93ZM18.2553 121.293C16.3911 121.292 14.5453 120.924 12.8233 120.21C11.1013 119.496 9.53685 118.45 8.21934 117.131C6.90184 115.812 5.85708 114.246 5.14473 112.523C4.43239 110.801 4.06642 108.954 4.06774 107.09V94.9218H160.949V107.09C160.951 108.955 160.584 110.801 159.872 112.525C159.159 114.248 158.114 115.813 156.796 117.132C155.478 118.451 153.913 119.498 152.19 120.212C150.468 120.926 148.621 121.293 146.757 121.293H18.2553V121.293Z" fill="white"/>
<path fill-rule="evenodd" clip-rule="evenodd" d="M66.4761 52.5714L81.3148 70.4039C81.4615 70.5813 81.6455 70.7241 81.8538 70.8221C82.062 70.9201 82.2893 70.971 82.5195 70.971C82.7497 70.971 82.977 70.9201 83.1853 70.8221C83.3935 70.7241 83.5775 70.5813 83.7242 70.4039L98.5669 52.5714C98.7968 52.3303 98.9517 52.0278 99.013 51.7004C99.0743 51.373 99.0393 51.0348 98.9123 50.727C98.7852 50.4191 98.5716 50.1546 98.2972 49.9658C98.0229 49.7769 97.6997 49.6716 97.3667 49.6628H91.1386V22.6935C91.1334 22.2442 90.9526 21.8147 90.6348 21.4969C90.3171 21.1792 89.8876 20.9984 89.4383 20.9932H75.6137C75.1635 20.9971 74.7328 21.1773 74.414 21.4952C74.0952 21.8131 73.9137 22.2433 73.9084 22.6935V49.6628H67.6813C67.3477 49.6703 67.0235 49.7746 66.7481 49.963C66.4728 50.1515 66.2582 50.4159 66.1304 50.7242C66.0027 51.0324 65.9674 51.3712 66.0287 51.6992C66.0901 52.0271 66.2455 52.3302 66.4761 52.5714V52.5714ZM68.5125 73.9836H96.5175C97.1807 73.9836 97.8167 74.2471 98.2856 74.716C98.7546 75.1849 99.018 75.821 99.018 76.4841C99.018 77.1473 98.7546 77.7833 98.2856 78.2522C97.8167 78.7212 97.1807 78.9846 96.5175 78.9846H68.5125C67.8493 78.9846 67.2133 78.7212 66.7444 78.2522C66.2754 77.7833 66.012 77.1473 66.012 76.4841C66.012 75.821 66.2754 75.1849 66.7444 74.716C67.2133 74.2471 67.8493 73.9836 68.5125 73.9836V73.9836Z" fill="#1A70C5"/>
</g>
<defs>
<clipPath id="clip0">
<rect width="165" height="157" fill="white"/>
</clipPath>
</defs>
</svg>
