<svg id="icon1.svg" xmlns="http://www.w3.org/2000/svg" width="114" height="157"><defs><style>.cls-1{fill:#fff;fill-rule:evenodd}</style></defs><path class="cls-1" d="M579.128 440H494v156.99h114V470.522zm1.263 7.8l20.235 21.392h-20.235V447.8zm-81.938 144.768V444.422h77.485v29.187h27.609v118.959H498.453z" transform="translate(-494 -440)"/><circle cx="57.5" cy="104.5" r="33.5" fill="#1a70c5"/><path class="cls-1" d="M539.344 549.639l11.234 13.92a1.162 1.162 0 001.824 0l11.234-13.92a1.35 1.35 0 00-.911-2.271h-4.714v-21.051a1.323 1.323 0 00-1.29-1.33h-10.462a1.323 1.323 0 00-1.29 1.33v21.051h-4.714a1.35 1.35 0 00-.911 2.271z" transform="translate(-494 -440)"/></svg>