<svg width="20" height="20" viewBox="0 0 20 20" fill="none" xmlns="http://www.w3.org/2000/svg">
<g clip-path="url(#clip0)">
<path d="M11.7586 3.19429V14.3001H9.39099V16.0598H14.5177L18.0291 18.5651V16.0598H20V3.19429H11.7586ZM14.1052 6.49995H15.278V7.67187H14.1052V6.49995ZM16.4509 12.7542H12.9324V11.5823H14.1057V10.0175H12.9324V8.84562H15.2776V11.5823H16.4509V12.7542Z" fill="#99A3AE"/>
<path d="M0 1.43449V13.1281H1.97098V15.0814L4.70879 13.1281H10.5867V1.43449H0ZM5.87977 10.7993H4.70691V9.62746H5.87977V10.7993ZM5.8793 7.71395V8.45414H4.70738V6.62875H5.29332C5.76023 6.62875 6.14016 6.24887 6.14016 5.78195C6.14016 5.31504 5.76027 4.93516 5.29332 4.93516C4.82641 4.93516 4.44656 5.31504 4.44656 5.78195H3.27465C3.27465 4.66883 4.1802 3.76324 5.29332 3.76324C6.40645 3.76324 7.31203 4.66887 7.31203 5.78195C7.31203 6.69137 6.70754 7.46223 5.8793 7.71395Z" fill="#99A3AE"/>
</g>
<defs>
<clipPath id="clip0">
<rect width="20" height="20" fill="white"/>
</clipPath>
</defs>
</svg>
