<svg xmlns="http://www.w3.org/2000/svg" width="311.779" height="42.906"><path d="M31.482 14.898L35.85 9.41a21.784 21.784 0 00-15.12-6.272C9.03 3.138.01 11.706.01 22.906c0 11.312 8.9 19.992 20.44 19.992a22.359 22.359 0 0015.456-6.72l-4.424-4.928a15.7 15.7 0 01-10.64 4.592 13.021 13.021 0 110-26.04 14.718 14.718 0 0110.64 5.096zm20.022-2.52c-8.96 0-15.232 6.16-15.232 15.288 0 9.016 6.1 15.176 15.4 15.176a16.63 16.63 0 0012.6-5.152l-3.92-4.088a11.126 11.126 0 01-8.064 3.36 8.358 8.358 0 01-8.569-6.832h22.12c.729-10.868-3.807-17.752-14.335-17.752zm-7.952 12.88c.672-4.424 3.7-7.224 8.008-7.224 4.536 0 7.5 2.8 7.672 7.224h-15.68zm33.14-6.888v-5.768h-7.28v29.96h7.28V28.114c0-5.432 3.864-9.128 10.192-8.736v-7.056c-4.648.056-8.176 2.128-10.192 6.048zm30.241 16.856a10.18 10.18 0 01-4.256 1.232c-1.96 0-3.136-.952-3.136-3.808v-13.5h8.568v-5.32h-8.568V5.602h-7.222v8.232h-4.256l.056 5.32h4.2v14.784c0 6.16 3.92 8.96 8.792 8.96a14.426 14.426 0 007.5-2.184zM114.885.002a4.034 4.034 0 103.92 4.032 3.824 3.824 0 00-3.92-4.032zm-3.64 12.6v29.96h7.28v-29.96h-7.28zm36.368-4.536a4.034 4.034 0 10-3.92-4.032 3.824 3.824 0 003.92 4.028zm-22.176 2.912v2.856h-3.918v5.32h3.92v23.408h7.28V19.154h7.5v-5.32h-7.5v-3.08c0-2.688 1.624-3.752 3.864-3.752a12.759 12.759 0 014.872 1.232l.224-6.272a12.136 12.136 0 00-5.6-1.288c-5.378 0-10.642 3.304-10.642 10.304zm18.536 31.584h7.28v-29.96h-7.28v29.96zm34.126-20.5l4.43-4.2c-2.69-3.472-7.06-5.488-12.55-5.488-9.01 0-15.23 6.16-15.23 15.288 0 9.016 6.16 15.176 15.12 15.176 5.88 0 10.36-2.24 12.99-6.048l-4.53-3.752c-1.79 2.352-4.59 3.528-8.07 3.528-4.81 0-8.17-3.584-8.17-8.96 0-5.264 3.36-8.848 8.17-8.848a10.264 10.264 0 017.84 3.304zm33.91 20.5l-.05-19.6c-.06-6.664-4.48-10.64-12.32-10.64-5.49 0-8.85 1.288-13.16 3.7l2.63 5.04a17.526 17.526 0 018.9-2.8c4.48 0 6.78 2.072 6.78 5.544v.784h-8.74c-7.28.056-11.37 3.472-11.37 9.016 0 5.32 4.04 9.3 10.48 9.3 4.25 0 7.61-1.344 9.68-3.976v3.632h7.17zm-15.12-5.264c-3.3 0-5.32-1.624-5.32-4.144 0-2.632 1.79-3.7 5.66-3.7h7.56v2.688c-.39 2.92-3.7 5.156-7.9 5.156zm35.89-2.072a10.149 10.149 0 01-4.25 1.232c-1.96 0-3.14-.952-3.14-3.808v-13.5h8.57v-5.32h-8.57V5.602h-7.22v8.232h-4.26l.06 5.32h4.2v14.784c0 6.16 3.92 8.96 8.79 8.96a14.4 14.4 0 007.5-2.184zm7.96-35.224a4.034 4.034 0 103.92 4.032 3.822 3.822 0 00-3.92-4.032zm-3.64 12.6v29.96h7.28v-29.96h-7.28zm26.32-.224c-9.47 0-15.85 6.1-15.85 15.176 0 9.128 6.38 15.288 15.85 15.288 9.35 0 15.73-6.16 15.73-15.288 0-9.072-6.38-15.176-15.73-15.176zm0 6.216c4.92 0 8.4 3.7 8.4 9.072s-3.48 9.072-8.4 9.072c-5.04 0-8.52-3.7-8.52-9.072s3.48-9.072 8.52-9.072zm37.28-6.272c-4.87.056-8.62 1.9-10.75 5.88v-5.6h-7.28v29.96h7.28V27.834c0-4.928 2.91-8.568 7.84-8.624 4.14 0 6.66 2.576 6.66 6.776v16.576h7.34v-18.7c0-7.116-4.2-11.54-11.09-11.54z" fill="#354c5e" fill-rule="evenodd"/></svg>