<svg xmlns="http://www.w3.org/2000/svg" width="143.62" height="39.531"><path d="M-.01-.013v39.2h29.4v-6.552H7.49v-9.856h19.04v-6.552H7.49V6.539h21.23V-.013H-.01zm31.51 9.24l9.74 14.616-10.47 15.344h8.12l7.23-10.472 6.66 10.472h8.4L50.99 23.843l9.52-14.616H52.5l-6.38 9.744-6.22-9.744h-8.4zm56.57 29.96l-.06-19.6c-.05-6.664-4.48-10.64-12.32-10.64-5.49 0-8.85 1.288-13.16 3.7l2.63 5.04a17.559 17.559 0 018.91-2.8c4.48 0 6.77 2.072 6.77 5.544v.784h-8.73c-7.28.056-11.37 3.472-11.37 9.016 0 5.32 4.03 9.3 10.47 9.3 4.26 0 7.62-1.344 9.69-3.976v3.632h7.17zm-15.12-5.264c-3.31 0-5.32-1.624-5.32-4.144 0-2.632 1.79-3.7 5.65-3.7h7.56v2.688c-.39 2.92-3.69 5.156-7.89 5.156zm59.74-24.976c-5.26.056-9.18 2.3-11.14 7.168-1.4-4.536-5.04-7.168-10.3-7.168-4.76.056-8.46 1.848-10.53 5.824V9.227h-7.28v29.96h7.28V24.403c0-4.872 2.85-8.456 7.61-8.624 4.04 0 6.5 2.576 6.5 6.832v16.576h7.34V24.403c0-4.872 2.85-8.456 7.56-8.624 4.03 0 6.55 2.576 6.55 6.832v16.576h7.33v-18.7c0-7.116-4.14-11.54-10.92-11.54z" fill="#354c5e" fill-rule="evenodd"/></svg>