<svg xmlns="http://www.w3.org/2000/svg" width="111.72" height="39.687"><path d="M.02-.013v39.2h7.5V23.675h17.75v-6.552H7.52V6.539h19.49l.06-6.552H.02zm53.89 39.2l-.06-19.6c-.06-6.664-4.48-10.64-12.32-10.64-5.49 0-8.85 1.288-13.16 3.7l2.63 5.04a17.559 17.559 0 018.91-2.8c4.48 0 6.77 2.072 6.77 5.544v.784h-8.73c-7.28.056-11.37 3.472-11.37 9.016 0 5.32 4.03 9.3 10.47 9.3 4.26 0 7.62-1.344 9.69-3.976v3.632h7.17zm-15.12-5.264c-3.31 0-5.32-1.624-5.32-4.144 0-2.632 1.79-3.7 5.65-3.7h7.56v2.688c-.39 2.92-3.69 5.156-7.89 5.156zm38.69-16.576l2.63-5.264a20.17 20.17 0 00-10.97-3.192c-6.05 0-11.32 2.856-11.32 9.016-.05 10.64 15.57 7.616 15.57 13.16 0 1.96-1.9 2.8-4.42 2.8a16.745 16.745 0 01-10.14-3.7l-2.52 5.1a19.249 19.249 0 0012.38 4.2c6.38 0 11.81-2.968 11.81-9.072 0-10.752-15.84-8.12-15.84-13.16 0-1.848 1.68-2.632 4.03-2.632a18.376 18.376 0 018.79 2.744zm22.99 14.5a10.227 10.227 0 01-4.26 1.232c-1.96 0-3.14-.952-3.14-3.808v-13.5h8.57v-5.32h-8.57V2.227h-7.22v8.232h-4.26l.06 5.32h4.2v14.784c0 6.16 3.92 8.96 8.79 8.96a14.463 14.463 0 007.51-2.184zM104.39.375v9.744l1.23 16.3h4.53l1.24-16.3V.375h-7zm3.47 31.248a3.751 3.751 0 00-3.81 3.976 3.843 3.843 0 107.67 0 3.762 3.762 0 00-3.86-3.972z" fill="#354c5e" fill-rule="evenodd"/></svg>