<svg xmlns="http://www.w3.org/2000/svg" width="118.718" height="39.531"><path d="M.012-.013v39.2h7.336V12.419l20.158 26.768h7.112v-39.2h-7.28v26.824L7.122-.013H.012zm53.9 9.016c-8.96 0-15.232 6.16-15.232 15.288 0 9.016 6.1 15.176 15.4 15.176a16.63 16.63 0 0012.6-5.152l-3.92-4.088a11.126 11.126 0 01-8.064 3.36 8.358 8.358 0 01-8.568-6.832h22.12c.726-10.868-3.81-17.752-14.336-17.752zm-7.952 12.88c.672-4.424 3.7-7.224 8.008-7.224 4.536 0 7.5 2.8 7.672 7.224H45.96zM67.94 9.227l9.744 14.616-10.472 15.344h8.12l7.224-10.472 6.662 10.472h8.4L87.426 23.843l9.52-14.616h-8.008l-6.384 9.744-6.216-9.744h-8.4zm49.113 22.624a10.18 10.18 0 01-4.256 1.232c-1.96 0-3.136-.952-3.136-3.808v-13.5h8.568v-5.32h-8.568V2.227h-7.224v8.232h-4.256l.056 5.32h4.2v14.784c0 6.16 3.92 8.96 8.792 8.96a14.426 14.426 0 007.5-2.184z" fill="#354c5e" fill-rule="evenodd"/></svg>