<svg xmlns="http://www.w3.org/2000/svg" width="111.063" height="39.531"><path d="M16.078-.013H.006v39.2h7.5V27.651h8.568c9.856 0 15.512-5.208 15.512-14.168C31.59 4.859 25.934-.013 16.078-.013zm-.392 21.056H7.51v-14.5h8.176c5.6 0 8.792 2.352 8.792 7.168 0 4.924-3.192 7.332-8.792 7.332zm43.896 18.144l-.056-19.6c-.056-6.664-4.48-10.64-12.32-10.64-5.488 0-8.848 1.288-13.16 3.7l2.632 5.04a17.539 17.539 0 018.9-2.8c4.48 0 6.776 2.072 6.776 5.544v.784h-8.736c-7.28.056-11.368 3.472-11.368 9.016 0 5.32 4.032 9.3 10.472 9.3 4.256 0 7.616-1.344 9.688-3.976v3.632h7.168zm-15.12-5.264c-3.3 0-5.32-1.624-5.32-4.144 0-2.632 1.792-3.7 5.656-3.7h7.56v2.688c-.392 2.92-3.696 5.156-7.896 5.156zm38.7-16.576l2.632-5.264a20.185 20.185 0 00-10.976-3.192c-6.048 0-11.312 2.856-11.312 9.016-.056 10.64 15.568 7.616 15.568 13.16 0 1.96-1.9 2.8-4.424 2.8a16.725 16.725 0 01-10.136-3.7l-2.52 5.1a19.237 19.237 0 0012.376 4.2c6.384 0 11.816-2.968 11.816-9.072 0-10.752-15.848-8.12-15.848-13.16 0-1.848 1.68-2.632 4.032-2.632a18.37 18.37 0 018.788 2.744zm24.866 0l2.632-5.264a20.185 20.185 0 00-10.98-3.196c-6.048 0-11.312 2.856-11.312 9.016-.056 10.64 15.568 7.616 15.568 13.16 0 1.96-1.9 2.8-4.424 2.8a16.725 16.725 0 01-10.136-3.7l-2.52 5.1a19.237 19.237 0 0012.376 4.2c6.384 0 11.816-2.968 11.816-9.072 0-10.752-15.848-8.12-15.848-13.16 0-1.848 1.68-2.632 4.032-2.632a18.37 18.37 0 018.792 2.748z" fill="#354c5e" fill-rule="evenodd"/></svg>