<svg xmlns="http://www.w3.org/2000/svg" width="118.313" height="39.468"><path d="M36.405-.013h-7.56L18.317 18.411 7.625-.013H.005l14.62 26.656v12.544h7.5V26.363zm10.929 9.016c-9.464 0-15.848 6.1-15.848 15.176 0 9.128 6.384 15.288 15.848 15.288 9.352 0 15.736-6.16 15.736-15.288 0-9.072-6.384-15.176-15.736-15.176zm0 6.216c4.928 0 8.4 3.7 8.4 9.072s-3.472 9.072-8.4 9.072c-5.04 0-8.512-3.7-8.512-9.072s3.472-9.072 8.512-9.072zm39.984-5.992v14.784c0 4.816-2.8 8.512-7.5 8.568-4.032 0-6.44-2.52-6.44-6.72V9.227h-7.336v18.76c0 7.056 4.144 11.48 10.864 11.48 4.76 0 8.344-1.848 10.416-5.824v5.544h7.336V9.227h-7.336zm20.805 5.768V9.227h-7.28v29.96h7.28V24.739c0-5.432 3.864-9.128 10.192-8.736V8.947c-4.648.056-8.176 2.128-10.19 6.048z" fill="#354c5e" fill-rule="evenodd"/></svg>