<svg xmlns="http://www.w3.org/2000/svg" xmlns:xlink="http://www.w3.org/1999/xlink" width="192" height="65"><defs><linearGradient id="b" x1="0%" y1="111.574%" y2="-11.574%"><stop offset="0%" stop-color="#82B7FF" stop-opacity="0"/><stop offset="100%" stop-color="#82B7FF" stop-opacity=".17"/></linearGradient><path id="a" d="M39.098 57.535H30.57V39.172l1.153 3.337L45.787 2.018H60.57v.608L39.098 57.535zM17.72 2.018h.02l3.553 10.287L17.72 2.018z"/><linearGradient id="d" x1="0%" y1="112.567%" y2="-12.567%"><stop offset="0%" stop-color="#7AF7FF" stop-opacity="0"/><stop offset="100%" stop-color="#7AF7FF"/></linearGradient><path id="c" d="M38.915 58.002H23.733L10.921 25h14.756l6.047 17.509.076-.221L37.294 58h1.622zM17.72 2.018l1.61 4.606L25.678 25 17.72 2.018z"/></defs><g fill="none" fill-rule="evenodd"><path fill="#0955C8" fill-opacity=".09" stroke="#E1EAF7" d="M3.5 28.5v33h35v-33h-35z"/><g transform="translate(-10 -2)"><use fill="#0451C6" xlink:href="#a"/><use fill="url(#b)" xlink:href="#a"/></g><g transform="translate(-10 -2)"><use fill="#1584E6" xlink:href="#c"/><use fill="url(#d)" xlink:href="#c"/></g><path fill="#0451C6" d="M58.473 32.996h7.528v22.669h-7.528v-3.687c-1.55 2.626-3.99 3.966-7.317 4.022-2.48 0-4.461-.789-5.942-2.367-1.48-1.578-2.22-3.68-2.22-6.306v-14.33h7.528V45.19c0 1.285.331 2.29.994 3.016.662.727 1.558 1.09 2.686 1.09 1.324-.028 2.368-.51 3.13-1.446.76-.935 1.141-2.158 1.141-3.666V32.996zm39.487-.001c2.434 0 4.384.783 5.85 2.35 1.466 1.567 2.2 3.679 2.2 6.336v14.31h-7.386v-12.17c0-1.286-.332-2.3-.995-3.042-.664-.74-1.563-1.112-2.697-1.112-1.3.028-2.33.51-3.091 1.448-.761.937-1.141 2.16-1.141 3.672V55.99h-7.385V43.82c0-1.286-.332-2.3-.996-3.042-.663-.74-1.562-1.112-2.696-1.112-1.3.028-2.338.51-3.112 1.448-.775.937-1.162 2.16-1.162 3.672V55.99h-7.343V33.289h7.343v3.734c.774-1.314 1.777-2.314 3.008-3 1.23-.685 2.662-1.028 4.294-1.028 1.826 0 3.388.448 4.688 1.343 1.3.895 2.227 2.14 2.78 3.734.72-1.678 1.75-2.944 3.091-3.797 1.341-.853 2.925-1.28 4.75-1.28zm10.287 22.996v-23.27h6.59v23.27h-6.59zm3.24-33.98c1.017 0 1.855.38 2.512 1.14.658.76.987 1.742.987 2.946 0 1.177-.33 2.151-.987 2.925s-1.495 1.162-2.513 1.162c-1.018 0-1.855-.388-2.513-1.162-.658-.774-.986-1.748-.986-2.925 0-1.204.328-2.186.986-2.946.658-.76 1.495-1.14 2.513-1.14zm20.367 10.984c2.47 0 4.448.783 5.933 2.35 1.484 1.567 2.227 3.679 2.227 6.336v14.31h-7.369v-12.17c0-1.286-.347-2.3-1.04-3.042-.695-.74-1.624-1.112-2.79-1.112-1.222.028-2.227.434-3.018 1.217-.791.783-1.257 1.819-1.395 3.105v12.002h-7.41V33.289h7.41v3.692c.805-1.314 1.838-2.308 3.102-2.98 1.262-.67 2.712-1.006 4.35-1.006zm25.901.266H165V54.35c0 2.139-.505 4.014-1.514 5.625-1.01 1.61-2.422 2.851-4.237 3.722-1.815.87-3.91 1.304-6.283 1.304a17.73 17.73 0 0 1-5.363-.812c-1.719-.542-3.234-1.27-4.544-2.182l2.538-5.261a12.817 12.817 0 0 0 3.275 1.668c1.173.399 2.36.599 3.561.599 1.638 0 2.934-.4 3.89-1.198.954-.799 1.432-1.882 1.432-3.251v-2.481c-1.474 2.025-3.575 3.037-6.304 3.037-1.829 0-3.459-.463-4.892-1.39-1.432-.927-2.552-2.239-3.356-3.936-.805-1.696-1.208-3.642-1.208-5.839 0-2.167.389-4.078 1.167-5.732s1.876-2.937 3.295-3.85c1.419-.912 3.03-1.369 4.83-1.369 1.365 0 2.6.264 3.705.792a7.3 7.3 0 0 1 2.763 2.288v-2.823zm-4.462 16.298c1.337 0 2.415-.499 3.234-1.497.819-.998 1.228-2.295 1.228-3.893 0-1.625-.41-2.937-1.228-3.935-.819-.998-1.897-1.498-3.234-1.498s-2.422.507-3.254 1.519c-.833 1.013-1.249 2.317-1.249 3.914 0 1.598.416 2.895 1.249 3.893.832.998 1.917 1.497 3.254 1.497zm26.179-16.555c2.48 0 4.665.479 6.554 1.436 1.888.957 3.354 2.303 4.397 4.036 1.043 1.734 1.565 3.738 1.565 6.012 0 2.303-.522 4.32-1.565 6.054s-2.509 3.08-4.397 4.036c-1.889.957-4.074 1.436-6.554 1.436-2.48 0-4.666-.479-6.554-1.436-1.889-.957-3.348-2.302-4.376-4.036-1.03-1.733-1.544-3.751-1.544-6.054 0-2.274.514-4.278 1.544-6.012 1.028-1.733 2.487-3.08 4.376-4.036 1.888-.957 4.073-1.436 6.554-1.436zm0 5.992c-1.466 0-2.65.513-3.552 1.54-.902 1.026-1.353 2.37-1.353 4.035 0 1.693.45 3.052 1.353 4.078.902 1.027 2.086 1.54 3.552 1.54 1.494 0 2.692-.513 3.594-1.54.902-1.026 1.353-2.385 1.353-4.078 0-1.664-.458-3.009-1.374-4.036-.916-1.026-2.108-1.54-3.573-1.54z"/></g></svg>