<svg id="deffb6e1-b436-48ef-851e-22b3cb7c83be" data-name="Visa.svg" xmlns="http://www.w3.org/2000/svg" xmlns:xlink="http://www.w3.org/1999/xlink" viewBox="0 0 542.5 81.65"><defs><linearGradient id="2e43f68b-7ad4-4d4c-b632-c2673789be5b" x1="225.3" y1="380.95" x2="225.3" y2="300.95" gradientUnits="userSpaceOnUse"><stop offset="0" stop-color="#eee"/><stop offset="1" stop-color="#fdfdfd"/></linearGradient><linearGradient id="d9cbcec9-f000-46f2-bc7f-116de09af87c" x1="501.3" y1="382.1" x2="501.3" y2="302.1" gradientUnits="userSpaceOnUse"><stop offset="0" stop-color="#1f2767"/><stop offset="1" stop-color="#214981"/></linearGradient><linearGradient id="299c1ae2-1217-434b-b827-0a38e05d994a" x1="363.3" y1="380.52" x2="363.3" y2="300.52" xlink:href="#d9cbcec9-f000-46f2-bc7f-116de09af87c"/><linearGradient id="a7aa63a6-0d16-42ad-8b74-c46acf2b43fc" x1="639.3" y1="380.95" x2="639.3" y2="300.95" gradientUnits="userSpaceOnUse"><stop offset="0" stop-color="#22609a"/><stop offset="1" stop-color="#3681b1"/></linearGradient><style/></defs><path id="fde17ee4-7f10-45c3-9de9-4b14be17a090" data-name="Rounded Rectangle 1 copy 8" d="M167.3 301h116a6 6 0 016 6v68a6 6 0 01-6 6h-116a6 6 0 01-6-6v-68a6 6 0 016-6z" transform="translate(-160.8 -300.45)" stroke="#eee" stroke-miterlimit="10" fill="url(#2e43f68b-7ad4-4d4c-b632-c2673789be5b)"/><path class="8a7b7e08-0d92-4eaa-8fc4-55d5c6f8a9d0" d="M206.7 326.55l-6.8 19.1-.8-3.9a22.19 22.19 0 00-9.6-11.7l6.2 24.5h7.4l11-28h-7.4zm5.8 28l4.4-28.1h7l-4.4 28.1h-7zm32.3-27.4a16.68 16.68 0 00-6.2-1.2c-6.9 0-11.7 3.8-11.8 9.3 0 4 3.5 6.3 6.1 7.6s3.6 2.3 3.6 3.5c0 1.9-2.2 2.7-4.2 2.7a12.23 12.23 0 01-6.5-1.5l-.9-.4-1 6.3a20.81 20.81 0 007.8 1.5c7.3 0 12.1-3.8 12.1-9.6 0-3.2-1.8-5.6-5.9-7.6-2.4-1.3-3.9-2.2-3.9-3.5s1.3-2.4 4-2.4a11.58 11.58 0 015.2 1.1l.6.3 1-6.1zm17.8-.6h-5.4a3.58 3.58 0 00-3.7 2.3l-10.3 25.7h7.3s1.2-3.5 1.5-4.2h8.9c.2 1 .9 4.2.9 4.2h6.5l-5.7-28zm-8.6 18c.6-1.6 2.8-7.8 2.8-7.8a25.47 25.47 0 00.9-2.7l.5 2.4s1.3 6.7 1.6 8.1H254z" transform="translate(-160.8 -300.45)"/><path id="5bef7f71-f249-45ee-b0f3-09d1282856de" data-name="Shape 12 copy" class="9b7fcd0b-7592-48a7-b139-e6736ac04eb4" d="M193.6 326.05h-11.3l-.1.5c8.7 2.3 14.5 8 16.9 14.8l-2.4-12.9a2.83 2.83 0 00-3.1-2.4z" transform="translate(-160.8 -300.45)"/><path id="da00a8bd-9258-4810-b1e7-4d96f5139198" data-name="Rounded Rectangle 1 copy" class="5cc419bc-f13b-4cbf-8c46-b8ad92fec3f6" d="M443.3 302.1h116a6 6 0 016 6v68a6 6 0 01-6 6h-116a6 6 0 01-6-6v-68a6 6 0 016-6z" transform="translate(-160.8 -300.45)"/><path id="e29ab656-cc7a-437c-b9f0-b9c9cae110f3" data-name="Shape 3 copy" d="M548.3 341.1a24 24 0 11-24-24 23.94 23.94 0 0124 24z" transform="translate(-160.8 -300.45)" fill="#ed1b2e"/><path d="M515.3 341.1a24 24 0 11-24-24 23.94 23.94 0 0124 24z" transform="translate(-160.8 -300.45)" fill="#009ddc"/><path class="9a6f800a-347a-480a-8466-0f0954c7bd66" d="M495.7 336.1a11.93 11.93 0 00-3.7.6l-.4 2.4.3-.1.4-.1a10.68 10.68 0 012.5-.3c1.4 0 2 .3 2 1a1.7 1.7 0 01-.1.7c-.4 0-.8-.1-1.2-.1-3.4 0-5.4 1.5-5.4 4.1a2.7 2.7 0 002.5 2.9h.3a3.89 3.89 0 003.2-1.3l-.1 1.1h2.6v-.7l.1-.5.1-.7.7-3.7a14.92 14.92 0 00.2-2.1c0-2.1-1.4-3.2-4-3.2zm-1.6 8.7a1 1 0 01-1.1-.9v-.2c0-1.1.9-1.6 2.6-1.6h.7c0 1.6-.9 2.7-2.2 2.7zm-8.6 2.1l1.8-9.9-4.2 9.9h-2.8l-.5-9.9-1.8 9.9h-2.8l2.4-12.9h4.8l.2 8 3.4-8h5l-2.4 12.9h-3.1zm32.1-8.1c-.7-.1-1.5-.1-2.2-.2q-1.5 0-1.5.9c0 .5.1.6 1.4 1.1a2.83 2.83 0 012.2 2.9c0 2.4-1.5 3.5-4.8 3.5a12.28 12.28 0 01-1.7-.1 2 2 0 01-.8-.1l-.5-.1h-.1l.4-2.4a8.63 8.63 0 002.8.4q1.8 0 1.8-.9c0-.5-.2-.6-1.4-1.2-1.6-.7-2.4-1.6-2.4-2.9 0-1.9 1.2-3.6 4.6-3.6a24.52 24.52 0 012.7.2zm4.8 5.7a2.2 2.2 0 00.8-.1l-.4 2.3a7.8 7.8 0 01-2.2.3 2.07 2.07 0 01-2.4-1.8v-.5a2.77 2.77 0 01.1-.9l.2-1 .1-.8 1.4-8h3l-.4 2.4h1.6l-.4 2.6h-1.6l-.8 4.4v.4c-.1.5.2.7 1 .7zm7.5-5.2c-1.5 0-1.9 1.1-3 7.5h-3.1l1.9-10.5h2.8l-.3 1.6c1-1.2 1.7-1.7 2.7-1.7h.3a.77.77 0 01.3.1c.1 0 .2.1.3.1l-1.1 3-.4-.1h-.4zm6.5-3.2c-3.7 0-6 2.5-6 6.2 0 2.7 1.4 4.8 4.9 4.8 3.1 0 5.5-1.6 6-5a5.7 5.7 0 00.1-1.3 4.41 4.41 0 00-4.2-4.7 1.1 1.1 0 00-.8 0zm1.5 5.9a3.11 3.11 0 01-2.3 2.6c-1.1 0-1.8-.9-1.8-2.4 0-1.7 1-3.6 2.5-3.6 1.2 0 1.7 1 1.7 2.1a5.29 5.29 0 01-.1 1.3zm-28.6.5a10.87 10.87 0 00.4-2.6c0-2.3-1.6-3.8-4.1-3.8-3.1 0-5.3 2.7-5.3 6.3 0 3.1 1.8 4.7 5.2 4.7a11 11 0 003.1-.4l.5-2.6a8.76 8.76 0 01-3.2.7q-2.7 0-2.7-1.8v-.3l6.1-.2zm-3.8-4a1.24 1.24 0 011.4 1.1v.8h-3.4a2.23 2.23 0 012-1.9z" transform="translate(-160.8 -300.45)"/><path id="b4812edc-0bbb-454a-bd71-da15f02bf04d" data-name="Rounded Rectangle 1 copy" d="M305.3 301.1h116a6 6 0 016 6v68a6 6 0 01-6 6h-116a6 6 0 01-6-6v-68a6 6 0 016-6z" transform="translate(-160.8 -300.45)" fill="url(#299c1ae2-1217-434b-b827-0a38e05d994a)"/><path id="dccdd0ab-2b16-4252-99ce-820542765491" data-name="Shape 3 copy" class="05b598e5-e13e-480a-af33-52d31afc0280" d="M403.3 341.1a24 24 0 11-24-24 23.94 23.94 0 0124 24z" transform="translate(-160.8 -300.45)"/><path d="M370.3 341.1a24 24 0 11-24-24 23.94 23.94 0 0124 24z" transform="translate(-160.8 -300.45)" fill="#f03727"/><path class="9a6f800a-347a-480a-8466-0f0954c7bd66" d="M352.2 337.5l-.4 1.6h-2.1a1.59 1.59 0 00-1 .5c0 .3.8.7 1.9 1.1a1.73 1.73 0 011.1 2.1c-.1.7-.3 2.2-3.6 2.2a13.68 13.68 0 01-2.9-.2l.4-1.7s2.4.5 3 .2 1.2-.8.2-1.1-2.7-.9-2.7-2.2a2.28 2.28 0 011.8-2.4 10.35 10.35 0 014.3-.1zm-16.2 7.4h-2.4l1.4-6.3-2.9 6.3h-1.6l-.4-6.5-1.4 6.5h-2.3l2.1-9.6h2.7l1 5.5 3.2-5.5h2.8l-2.2 9.6zm18.3.1a3.29 3.29 0 01-1.7-.4 1.66 1.66 0 01-.5-1.2v-.4a4.33 4.33 0 00.1-.5l1.4-6.1h2.2l-.3 1.2h2.1l-.4 1.5h-2.1l-.6 2.6c0 .2-.1.3-.1.5s-.1.3-.1.5a.48.48 0 00.2.5 1.42 1.42 0 00.6.2.6.6 0 00.4-.1 1.06 1.06 0 00.5-.2h.2l-.4 1.5c-.3.1-.5.1-.8.2 0 .2-.4.2-.7.2zm16.1-5.3a1.4 1.4 0 00-1.8.4l-1.1 4.8h-2.2l1.6-7.2h2.2v.6a2.74 2.74 0 012.1-.6 5 5 0 00-.8 2zm4.2 5.4a4 4 0 01-2.9-1 3.48 3.48 0 01-1-2.8 7.83 7.83 0 01.4-2.6 8.17 8.17 0 011.2-2 5.83 5.83 0 014.1-1.7 11 11 0 011.8.2c.3.1.8.3.8.3l-.5 2.3a5.55 5.55 0 00-.8-.6 3.19 3.19 0 00-1.4-.3 2.68 2.68 0 00-2.3 1.2 4.36 4.36 0 00-.9 2.9 2.16 2.16 0 00.5 1.7 1.87 1.87 0 001.4.5 4.15 4.15 0 001.6-.3 2.51 2.51 0 00.7-.4l-.5 2.2a2.27 2.27 0 01-.4.1 3.09 3.09 0 01-.8.2 3.4 3.4 0 01-1 .1zm-33.1-.5a.37.37 0 01-.3.1 1.42 1.42 0 01-.6.2 2.77 2.77 0 01-.9.1 2.39 2.39 0 01-1.4-.5 1.61 1.61 0 01-.6-1.3 2.37 2.37 0 011.6-2.4 8.45 8.45 0 011.7-.5l.5-.1c.6-.1 1.1-.1 1.7-.2v-.3a.75.75 0 00-.4-.7 5 5 0 00-1.2-.2h-.1a4.25 4.25 0 00-1.1.2 6.21 6.21 0 00-1 .3h-.2l.3-1.7a5 5 0 011.2-.2 2.2 2.2 0 01.8-.1h.9a6.72 6.72 0 012.4.4 1.6 1.6 0 01.8 1.4v.3a.76.76 0 01-.1.4l-1.1 4.9h-2.2l.2-.8a2.19 2.19 0 01-.5.3 1.2 1.2 0 01-.4.4zm0-3a1.42 1.42 0 00-.6.2 2.09 2.09 0 00-.6.4 1.45 1.45 0 00-.2.7.55.55 0 00.3.5 1.88 1.88 0 00.8.2.76.76 0 00.4-.1 2.27 2.27 0 01.4-.1 2.51 2.51 0 00.7-.4l.3-1.5c-.4 0-.8.1-1.1.1h-.4zm19.3-2.7a1.91 1.91 0 00-.8.3 2.59 2.59 0 00-.7 1.1h3v-.4a1.14 1.14 0 00-.3-.8 1.4 1.4 0 00-.9-.3.37.37 0 01-.3.1zm0 4.5h.3a3.53 3.53 0 001.4-.3 3.88 3.88 0 001.1-.6h.3l-.4 1.9a5.73 5.73 0 01-1.4.4c-.4.1-.9.1-1.3.2h-.2a4 4 0 01-2.8-.8 2.9 2.9 0 01-1-2.3 5.66 5.66 0 01.3-1.8 6 6 0 01.9-1.5 7.1 7.1 0 011.4-1 2.77 2.77 0 011.3-.3h.6a3.17 3.17 0 012.3.7 2.73 2.73 0 01.8 1.9 2.77 2.77 0 01-.1.9c-.1.3-.1.6-.2.8h-5.2v.2a1.85 1.85 0 00.5 1.2 2.73 2.73 0 001.4.4zm21 1.2a.37.37 0 01-.3.1 1.42 1.42 0 01-.6.2 2.49 2.49 0 01-.8.1 2.39 2.39 0 01-1.4-.5 1.3 1.3 0 01-.5-1.3 2.82 2.82 0 01.4-1.5 3.13 3.13 0 011.1-.9 8.45 8.45 0 011.7-.5 1.09 1.09 0 00.5-.1c.6-.1 1.1-.1 1.7-.2v-.3a1 1 0 00-.4-.7 5 5 0 00-1.2-.2h-.2a4.25 4.25 0 00-1.1.2 6.21 6.21 0 00-1 .3h-.2l.3-1.7a5 5 0 011.2-.2 2.2 2.2 0 01.8-.1h.9a4.88 4.88 0 012.4.4 1.6 1.6 0 01.8 1.4v.3a.76.76 0 01-.1.4l-1.1 4.9h-2.2l.2-.8c-.2.1-.3.2-.5.3l-.4.4zm0-3a1.42 1.42 0 00-.6.2 2.09 2.09 0 00-.6.4 1.45 1.45 0 00-.2.7.55.55 0 00.3.5 1.88 1.88 0 00.8.2.76.76 0 00.4-.1c.1 0 .2-.1.3-.1a2.51 2.51 0 00.7-.4l.4-1.5c-.4 0-.8.1-1.1.1h-.4zm9.4-1.9a1.4 1.4 0 00-1.8.4l-1.1 4.8h-2.2l1.6-7.2h2.2v.6a2.74 2.74 0 012.1-.6 5 5 0 00-.8 2zm4.4-.5a.53.53 0 00-.3.2 2.34 2.34 0 00-.7.7 3 3 0 00-.4 1 5.16 5.16 0 00-.2 1.1 1.06 1.06 0 001.2 1.2.48.48 0 00.4-.1.2.2 0 00.2-.1l.6-.3.8-3.6c-.2-.1-.3-.1-.5-.2s-.3-.1-.5-.1-.4.1-.6.2zm0 5.3l-.6.3a2.57 2.57 0 00-.5.2c-.2 0-.4.1-.6.1a2 2 0 01-1.6-.7 3.29 3.29 0 01-.6-1.9 5.82 5.82 0 01.3-1.9 5.07 5.07 0 01.9-1.6 6.88 6.88 0 011.3-1.1 4.19 4.19 0 011.5-.4h.1a3.4 3.4 0 011 .1 3.55 3.55 0 01.9.4l.5-2.5h2.2l-2 9.5h-2.2l.2-.8a2.19 2.19 0 00-.8.3z" transform="translate(-160.8 -300.45)"/><path id="ab6c873a-5d7f-419d-95e1-e6d6ac014f2c" data-name="Rounded Rectangle 1" d="M581.3 301h116a6 6 0 016 6v68a6 6 0 01-6 6h-116a6 6 0 01-6-6v-68a6 6 0 016-6z" transform="translate(-160.8 -300.45)" fill="url(#a7aa63a6-0d16-42ad-8b74-c46acf2b43fc)"/><path class="9a6f800a-347a-480a-8466-0f0954c7bd66" d="M586.84 329l-2.46-6-2.45 6m59.16-2.39a3.34 3.34 0 01-1.78.31h-4.37v-3.34h4.43a3.69 3.69 0 011.71.27 1.38 1.38 0 01.76 1.33 1.54 1.54 0 01-.75 1.47zm31.17 2.39l-2.49-6-2.48 6h5zm-58.12 6.49h-3.69v-11.75l-5.22 11.79h-3.16l-5.23-11.8v11.8h-7.32l-1.38-3.36h-7.49l-1.4 3.36h-3.91l6.44-15.05h5.35l6.12 14.25v-14.25h5.87l4.71 10.21 4.33-10.21h6v15.05zm14.7 0h-12v-15.01h12v3.13h-8.42v2.71h8.22v3.09h-8.22v3h8.42v3.11zm16.95-11a4.24 4.24 0 01-2.54 4 4.17 4.17 0 011.78 1.27 4.33 4.33 0 01.6 2.76v3H642v-1.9c0-.91.09-2.21-.57-2.93-.53-.53-1.33-.64-2.62-.64h-3.86v5.47h-3.6v-15.04h8.27a8.47 8.47 0 014.36.72 3.51 3.51 0 011.81 3.33zm5.76 11h-3.67v-15.01h3.67v15.05zm42.59 0H689l-6.82-11.3v11.3h-7.33l-1.4-3.36H666l-1.36 3.36h-4.21c-1.75 0-4-.39-5.22-1.66s-1.92-3-1.92-5.75a8 8 0 011.94-5.89c1.16-1.2 3-1.76 5.46-1.76h3.48v3.23h-3.41a3.46 3.46 0 00-2.77.89 5 5 0 00-1 3.41 5.22 5.22 0 001 3.53 3.47 3.47 0 002.51.78h1.62l5.07-11.84h5.39l6.09 14.24v-14.19h5.48l6.3 10.52v-10.52h3.69v15.05zm-118.83 3h6.15l1.39-3.34h3.1l1.38 3.34h12.09v-2.56l1.08 2.57h6.28l1.08-2.6v2.59h30.06V333h.58c.41 0 .53.05.53.72v4.76h15.55v-1.28a12.32 12.32 0 005.77 1.28h6.54l1.4-3.34h3.1l1.37 3.34h12.6v-3.18l1.91 3.18h10.1v-21h-10V320l-1.4-2.48h-10.28V320l-1.29-2.48h-13.85a12.44 12.44 0 00-6 1.23v-1.25H645v1.23a5.93 5.93 0 00-4.06-1.23H606l-2.34 5.42-2.41-5.42h-11v2.5l-1.25-2.5h-9.38l-4.36 10v11zm127.99 11.1h-6.56a2.49 2.49 0 00-1.46.27 1.17 1.17 0 00-.53 1.08 1.14 1.14 0 00.79 1.12 4.1 4.1 0 001.39.17l1.95.05c2 0 3.28.39 4.08 1.21a1.94 1.94 0 01.33.37m0 5.64c-.87 1.28-2.58 1.93-4.88 1.93h-6.95v-3.23h6.92a2 2 0 001.46-.37 1.32 1.32 0 00.43-1 1.24 1.24 0 00-.44-1 1.83 1.83 0 00-1.27-.33c-3.38-.11-7.59.1-7.59-4.66 0-2.18 1.39-4.48 5.16-4.48h7.17v-3h-6.66a7.5 7.5 0 00-4.5 1.23v-1.23h-9.85a6.82 6.82 0 00-4.3 1.23v-1.23h-17.58v1.23a9.36 9.36 0 00-4.85-1.23H644v1.23c-1.11-1.07-3.57-1.23-5.07-1.23h-13l-3 3.22-2.78-3.22h-19.4v21h19l3.06-3.27 2.88 3.27h11.73v-4.94h1.15a12.22 12.22 0 005-.74v5.67h9.67v-5.48h.47c.6 0 .65 0 .65.62v4.85h29.39a8.38 8.38 0 004.9-1.34v1.34H698a12.49 12.49 0 005.28-1v-3.91zm-14.35-6a4.19 4.19 0 011.08 3.19c0 3.24-2 4.75-5.65 4.75h-7v-3.23h7a2.11 2.11 0 001.47-.37 1.34 1.34 0 00.42-1 1.29 1.29 0 00-.44-1 1.89 1.89 0 00-1.28-.33c-3.36-.11-7.58.1-7.58-4.66 0-2.18 1.37-4.48 5.14-4.48h7.21v3.2h-6.6a2.43 2.43 0 00-1.44.27 1.26 1.26 0 00.25 2.2 4.14 4.14 0 001.4.17l1.94.05c1.93.08 3.27.42 4.09 1.24zm-32.46-.93a3.44 3.44 0 01-1.78.31h-4.37v-3.38h4.43a3.54 3.54 0 011.72.27 1.43 1.43 0 01.74 1.35 1.62 1.62 0 01-.73 1.45zm2.17 1.87a3.91 3.91 0 011.76 1.26 4.38 4.38 0 01.6 2.75v3h-3.61v-1.88c0-.91.09-2.25-.58-2.95-.53-.54-1.33-.67-2.64-.67h-3.84v5.5h-3.62v-15.06H655a8.91 8.91 0 014.33.71 3.53 3.53 0 011.85 3.34 4.22 4.22 0 01-2.52 4.01zm4.54-8.06h12v3.11h-8.42v2.74H675v3.07h-8.22v3h8.42v3.12h-12v-15.03zm-24.27 6.95h-4.65v-3.83H639c1.3 0 2.2.53 2.2 1.85s-.89 1.99-2.27 1.99zm-8.23 6.74l-5.52-6.13 5.53-5.94v12.07zm-14.26-1.77h-8.85v-3h7.9v-3.07h-7.9v-2.73h9l3.94 4.39zm28.6-7c0 4.18-3.12 5-6.27 5h-4.49v5h-7l-4.43-5-4.6 5H604v-14.91h14.47l4.43 4.93 4.58-4.93H639c2.83 0 6 .79 6 4.96z" transform="translate(-160.8 -300.45)"/></svg>