<svg xmlns="http://www.w3.org/2000/svg" width="18.031" height="31" viewBox="0 0 18.031 31">
  <defs>
    <style>
      .cls-1 {
        fill: #354c5e;
        fill-rule: evenodd;
      }
    </style>
  </defs>
  <path id="Rounded_Rectangle_1_copy_3" data-name="Rounded Rectangle 1 copy 3" class="cls-1" d="M748,322.572L761.068,335.9c0.751,0.767-.266,2.011-1.018,2.778a1.9,1.9,0,0,1-2.722,0l-13.067-13.332c-0.751-.767.266-2.01,1.018-2.777A1.9,1.9,0,0,1,748,322.572Zm0.366,29.863,13.085-13.351a1.994,1.994,0,0,0,0-2.781,3.33,3.33,0,0,0-3.744,0l-13.085,13.35c-0.753.768,0.265,2.014,1.018,2.782A1.9,1.9,0,0,0,748.367,352.435Z" transform="translate(-744 -322)"/>
</svg>
