<!-- Generated by IcoMoon.io -->
<svg version="1.1" xmlns="http://www.w3.org/2000/svg" width="613" height="1024" viewBox="0 0 613 1024">
<title></title>
<g id="icomoon-ignore">
</g>
<path d="M30.344 993.28c18.774 19.075 44.871 30.893 73.728 30.893s54.954-11.819 73.715-30.88l0.013-0.014 406.528-408.576c18.825-18.889 30.464-44.949 30.464-73.728s-11.639-54.839-30.467-73.731l0.003 0.003-406.528-408.576c-18.674-18.472-44.365-29.883-72.721-29.883-29.366 0-55.873 12.239-74.7 31.894l-0.035 0.037c-18.223 18.78-29.458 44.43-29.458 72.704s11.235 53.924 29.483 72.73l-0.025-0.026 333.824 334.848-333.824 334.848c-18.825 18.889-30.464 44.949-30.464 73.728s11.639 54.839 30.467 73.731l-0.003-0.003z"></path>
</svg>
