<svg xmlns="http://www.w3.org/2000/svg" width="21" height="16" viewBox="0 0 21 16">
  <defs>
    <style>
      .cls-1 {
        fill: #fff;
        fill-rule: evenodd;
      }
    </style>
  </defs>
  <path class="cls-1" d="M1252.82,742.888v3.2h-10.98a0.85,0.85,0,0,0-.84.866v6.117a0.849,0.849,0,0,0,.84.865h10.98v3.2a0.845,0.845,0,0,0,.85.855,0.83,0.83,0,0,0,.55-0.22l7.51-7.127a0.88,0.88,0,0,0,.04-1.223c-0.01-.016-0.03-0.032-0.04-0.047l-7.51-7.155a0.826,0.826,0,0,0-1.19.068,0.892,0.892,0,0,0-.21.566v0.029Z" transform="translate(-1241 -742)"/>
</svg>
