<svg xmlns="http://www.w3.org/2000/svg" width="22" height="18" viewBox="0 0 22 18">
	<defs>
		<style>
			.cls-1 {
				fill: #1a70c5;
				fill-rule: evenodd;
			}
		</style>
	</defs>
	<path class="cls-1" d="M1601,496h-18a2,2,0,0,1-2-2V480.011a2,2,0,0,1,2-2h18a2,2,0,0,1,2,2V494A2,2,0,0,1,1601,496Zm-18-15.986V494h18V480.011h-18ZM1592,496a1,1,0,0,1-1-1V479.011a1,1,0,0,1,2,0V495A1,1,0,0,1,1592,496Zm-4-11.99h-2a1,1,0,1,1,0-2h2A1,1,0,1,1,1588,484.007Zm0,4h-2a1,1,0,1,1,0-2h2A1,1,0,1,1,1588,488Z" transform="translate(-1581 -478)"/>
</svg>
