<!-- Generated by IcoMoon.io -->
<svg version="1.1" xmlns="http://www.w3.org/2000/svg" width="1251" height="1024" viewBox="0 0 1251 1024">
<title></title>
<g id="icomoon-ignore">
</g>
<path d="M1137.664 1024h-1024c-62.775 0-113.664-50.889-113.664-113.664v0-795.648c0-62.775 50.889-113.664 113.664-113.664v0h1024c62.775 0 113.664 50.889 113.664 113.664v0 795.648c0 62.775-50.889 113.664-113.664 113.664v0zM113.664 114.688v795.648h1024v-795.648h-1024zM625.664 1024c-31.227-0.575-56.32-26.025-56.32-57.335 0-0.003 0-0.006 0-0.010v0-909.312c-0.326-2.297-0.512-4.95-0.512-7.646 0-31.67 25.674-57.344 57.344-57.344s57.344 25.674 57.344 57.344c0 2.696-0.186 5.349-0.546 7.946l0.034-0.3v909.312c0 31.67-25.674 57.344-57.344 57.344v0zM398.336 342.016h-113.664c-2.297 0.326-4.95 0.512-7.646 0.512-31.67 0-57.344-25.674-57.344-57.344s25.674-57.344 57.344-57.344c2.696 0 5.349 0.186 7.946 0.546l-0.3-0.034h113.664c28.21 3.903 49.698 27.858 49.698 56.832s-21.488 52.929-49.398 56.798l-0.3 0.034zM398.336 569.344h-113.664c-2.297 0.326-4.95 0.512-7.646 0.512-31.67 0-57.344-25.674-57.344-57.344s25.674-57.344 57.344-57.344c2.696 0 5.349 0.186 7.946 0.546l-0.3-0.034h113.664c2.297-0.326 4.95-0.512 7.646-0.512 31.67 0 57.344 25.674 57.344 57.344s-25.674 57.344-57.344 57.344c-2.696 0-5.349-0.186-7.946-0.546l0.3 0.034z"></path>
</svg>
