<svg xmlns="http://www.w3.org/2000/svg" width="21.97" height="22" viewBox="0 0 21.97 22">
  <metadata><?xpacket begin="﻿" id="W5M0MpCehiHzreSzNTczkc9d"?>
<x:xmpmeta xmlns:x="adobe:ns:meta/" x:xmptk="Adobe XMP Core 5.6-c138 79.159824, 2016/09/14-01:09:01        ">
   <rdf:RDF xmlns:rdf="http://www.w3.org/1999/02/22-rdf-syntax-ns#">
      <rdf:Description rdf:about=""/>
   </rdf:RDF>
</x:xmpmeta>
                                                                                                    
                                                                                                    
                                                                                                    
                                                                                                    
                                                                                                    
                                                                                                    
                                                                                                    
                                                                                                    
                                                                                                    
                                                                                                    
                                                                                                    
                                                                                                    
                                                                                                    
                                                                                                    
                                                                                                    
                                                                                                    
                                                                                                    
                                                                                                    
                                                                                                    
                                                                                                    
                           
<?xpacket end="w"?></metadata>
<defs>
    <style>
      .cls-1 {
        fill: #fda00a;
        fill-rule: evenodd;
      }
    </style>
  </defs>
  <path class="cls-1" d="M1625.09,68a3,3,0,1,1,3.03-3A3.018,3.018,0,0,1,1625.09,68Zm0-4a1,1,0,1,0,1.01,1A1,1,0,0,0,1625.09,64Zm6.06,4a3,3,0,1,1,3.03-3A3.018,3.018,0,0,1,1631.15,68Zm0-4a1,1,0,1,0,1.01,1A1,1,0,0,0,1631.15,64Zm3.21-2h-12.43a2.021,2.021,0,0,1-2-1.716l-1.65-11.414a1.011,1.011,0,0,0-1-.858h-0.27a1,1,0,1,1,0-2h0.27a3.032,3.032,0,0,1,3,2.574L1621.93,60h12.43l1.61-7.993h-11.89a1,1,0,1,1,0-2h11.89a2.042,2.042,0,0,1,1.57.732,1.986,1.986,0,0,1,.41,1.659l-1.61,7.993A2.021,2.021,0,0,1,1634.36,62Z" transform="translate(-1616 -46)"/>
</svg>
