<!-- Generated by IcoMoon.io -->
<svg version="1.1" xmlns="http://www.w3.org/2000/svg" width="1024" height="1024" viewBox="0 0 1024 1024">
<title></title>
<g id="icomoon-ignore">
</g>
<path d="M512 1019.904c-0.557 0.012-1.213 0.019-1.871 0.019-11.852 0-23.175-2.262-33.562-6.379l0.617 0.215-418.816-172.032c-35.094-14.231-59.393-48.047-59.393-87.539 0-0.185 0.001-0.369 0.002-0.553v0.028-657.408c-0.001-0.176-0.002-0.384-0.002-0.593 0-32.293 16.073-60.831 40.656-78.052l0.306-0.203c14.685-10.563 33.032-16.894 52.857-16.894 12.32 0 24.069 2.445 34.788 6.875l-0.605-0.222 384 157.696 385.024-157.696c9.933-4.045 21.457-6.392 33.529-6.392 19.666 0 37.877 6.229 52.767 16.821l-0.28-0.189c24.889 17.424 40.962 45.963 40.962 78.255 0 0.208-0.001 0.417-0.002 0.625v-0.032 657.408c0.003 0.279 0.005 0.608 0.005 0.938 0 39.105-23.826 72.644-57.752 86.895l-0.621 0.231-418.816 172.032c-9.759 3.892-21.070 6.148-32.907 6.148-0.311 0-0.622-0.002-0.933-0.005h0.047zM92.16 96.256v657.408l419.84 171.008 418.816-171.008v-657.408l-385.024 156.672c-10.14 4.291-21.931 6.785-34.304 6.785s-24.164-2.494-34.897-7.006l0.593 0.221zM512 164.864v0zM512 1024c-0.003 0-0.007 0-0.011 0-26.015 0-47.104-21.089-47.104-47.104 0-0.36 0.004-0.719 0.012-1.077l-0.001 0.053v-759.808c-0.326-2.081-0.512-4.482-0.512-6.926 0-26.015 21.089-47.104 47.104-47.104s47.104 21.089 47.104 47.104c0 2.444-0.186 4.845-0.545 7.188l0.033-0.262v759.808c0.007 0.308 0.011 0.671 0.011 1.035 0 25.659-20.516 46.526-46.039 47.092l-0.053 0.001z"></path>
</svg>
