<svg xmlns="http://www.w3.org/2000/svg" width="22" height="22" viewBox="0 0 22 22">
  <metadata><?xpacket begin="﻿" id="W5M0MpCehiHzreSzNTczkc9d"?>
<x:xmpmeta xmlns:x="adobe:ns:meta/" x:xmptk="Adobe XMP Core 5.6-c138 79.159824, 2016/09/14-01:09:01        ">
   <rdf:RDF xmlns:rdf="http://www.w3.org/1999/02/22-rdf-syntax-ns#">
      <rdf:Description rdf:about=""/>
   </rdf:RDF>
</x:xmpmeta>
                                                                                                    
                                                                                                    
                                                                                                    
                                                                                                    
                                                                                                    
                                                                                                    
                                                                                                    
                                                                                                    
                                                                                                    
                                                                                                    
                                                                                                    
                                                                                                    
                                                                                                    
                                                                                                    
                                                                                                    
                                                                                                    
                                                                                                    
                                                                                                    
                                                                                                    
                                                                                                    
                           
<?xpacket end="w"?></metadata>
<defs>
    <style>
      .cls-1 {
        fill: #1a70c5;
        fill-rule: evenodd;
      }
    </style>
  </defs>
  <path class="cls-1" d="M427.989,157.916a1.947,1.947,0,0,1-.744-0.148l-9-3.675a2.031,2.031,0,0,1-1.257-1.895V138.062a2.05,2.05,0,0,1,.878-1.69,1.964,1.964,0,0,1,1.864-.206l8.255,3.373,8.255-3.373a1.963,1.963,0,0,1,1.863.206,2.05,2.05,0,0,1,.878,1.69V152.2a2.03,2.03,0,0,1-1.258,1.895l-9,3.676A1.947,1.947,0,0,1,427.989,157.916Zm-9-19.853V152.2l9,3.675,9-3.676V138.062l-8.256,3.373a1.944,1.944,0,0,1-1.485,0Zm9,1.476h0Zm0,18.454a1.009,1.009,0,0,1-1-1.021V140.638a1,1,0,1,1,2,0v16.334A1.009,1.009,0,0,1,427.989,157.993Z" transform="translate(-417 -136)"/>
</svg>
