<svg width="20" height="20" viewBox="0 0 20 20" fill="none" xmlns="http://www.w3.org/2000/svg">
<g clip-path="url(#clip0)">
<path fill-rule="evenodd" clip-rule="evenodd" d="M11.964 6.4246C12.0274 6.36751 12.0778 6.29898 12.1122 6.22312C12.1467 6.14725 12.1644 6.06557 12.1644 5.9831C12.1644 5.90063 12.1467 5.81895 12.1122 5.74309C12.0778 5.66723 12.0274 5.5987 11.964 5.5416C11.834 5.42405 11.6605 5.35846 11.48 5.35846C11.2995 5.35846 11.1261 5.42405 10.996 5.5416L3.69934 12.1978C3.3828 12.4834 3.13096 12.8262 2.95892 13.2055C2.78689 13.5848 2.6982 13.9927 2.6982 14.405C2.6982 14.8172 2.78689 15.2254 2.95892 15.6047C3.13096 15.984 3.3828 16.3269 3.69934 16.6125C4.35145 17.1973 5.2184 17.5236 6.12002 17.5236C7.02163 17.5236 7.88858 17.1973 8.54069 16.6125L14.5927 11.0894L18.586 7.45131C19.0291 7.05141 19.3816 6.57159 19.6224 6.04058C19.8632 5.50957 19.9874 4.93828 19.9874 4.3611C19.9874 3.78393 19.8632 3.21294 19.6224 2.68193C19.3816 2.15092 19.0291 1.67111 18.586 1.2712C17.6752 0.448532 16.4606 -0.0111084 15.197 -0.0111084C13.9334 -0.0111084 12.7188 0.448532 11.808 1.2712L11.5054 1.54668L1.79869 10.3944C1.22885 10.9092 0.775521 11.5267 0.465861 12.21C0.156201 12.8932 -0.00341797 13.6281 -0.00341797 14.3707C-0.00341797 15.1133 0.156201 15.8482 0.465861 16.5314C0.775521 17.2147 1.22885 17.8323 1.79869 18.347C2.97274 19.399 4.53305 19.9858 6.15568 19.9858C7.77832 19.9858 9.33862 19.399 10.5127 18.347L18.0153 11.5028C18.0787 11.4457 18.1291 11.3772 18.1636 11.3013C18.198 11.2254 18.2158 11.1438 18.2158 11.0613C18.2158 10.9788 18.198 10.8971 18.1636 10.8213C18.1291 10.7454 18.0787 10.6769 18.0153 10.6198C17.8853 10.5022 17.7118 10.4366 17.5314 10.4366C17.3509 10.4366 17.1774 10.5022 17.0473 10.6198L9.54468 17.464C8.63228 18.2838 7.41832 18.7414 6.15568 18.7414C4.89304 18.7414 3.67908 18.2838 2.76668 17.464C2.32348 17.0635 1.9709 16.5829 1.73006 16.0514C1.48923 15.5199 1.36509 14.9484 1.36509 14.3707C1.36509 13.7931 1.48923 13.2212 1.73006 12.6897C1.9709 12.1582 2.32348 11.6779 2.76668 11.2775L12.4733 2.42938L12.7754 2.1539C13.4261 1.56633 14.2937 1.23818 15.1964 1.23818C16.099 1.23818 16.9666 1.56633 17.6174 2.1539C17.9339 2.43952 18.1858 2.78235 18.3578 3.16165C18.5298 3.54095 18.6185 3.94882 18.6185 4.3611C18.6185 4.77338 18.5298 5.18157 18.3578 5.56086C18.1858 5.94016 17.9339 6.28299 17.6174 6.56861L13.624 10.2067L7.57269 15.7295C7.18069 16.0792 6.66067 16.274 6.12002 16.274C5.57936 16.274 5.05936 16.0792 4.66736 15.7295C4.47745 15.5581 4.32636 15.3523 4.22314 15.1247C4.11993 14.8971 4.06673 14.6523 4.06673 14.405C4.06673 14.1576 4.11993 13.9128 4.22314 13.6852C4.32636 13.4577 4.47745 13.2521 4.66736 13.0808L11.964 6.4246Z" fill="#FCB119"/>
</g>
<defs>
<clipPath id="clip0">
<rect width="20" height="20" fill="white"/>
</clipPath>
</defs>
</svg>
