<svg xmlns="http://www.w3.org/2000/svg" width="13" height="17" viewBox="0 0 13 17">
  <defs>
    <style>
      .cls-1 {
        fill: #fff;
        fill-rule: evenodd;
      }
    </style>
  </defs>
  <path class="cls-1" d="M962.127,735.473c1.349,1.783,3.7,3.567,5.047,5.351a0.4,0.4,0,0,0,.657,0c1.349-1.784,3.7-3.568,5.047-5.351a0.525,0.525,0,0,0-.329-0.873h-1.7v-6.093a0.494,0.494,0,0,0-.465-0.511h-5.768a0.494,0.494,0,0,0-.465.511V734.6h-1.7A0.525,0.525,0,0,0,962.127,735.473ZM961.474,743h12.052a0.474,0.474,0,0,1,.474.474v1.052a0.474,0.474,0,0,1-.474.474H961.474a0.474,0.474,0,0,1-.474-0.474v-1.052A0.474,0.474,0,0,1,961.474,743Z" transform="translate(-961 -728)"/>
</svg>
