<svg xmlns="http://www.w3.org/2000/svg" width="17" height="19" viewBox="0 0 17 19">
  <metadata><?xpacket begin="﻿" id="W5M0MpCehiHzreSzNTczkc9d"?>
<x:xmpmeta xmlns:x="adobe:ns:meta/" x:xmptk="Adobe XMP Core 5.6-c138 79.159824, 2016/09/14-01:09:01        ">
   <rdf:RDF xmlns:rdf="http://www.w3.org/1999/02/22-rdf-syntax-ns#">
      <rdf:Description rdf:about=""/>
   </rdf:RDF>
</x:xmpmeta>
                                                                                                    
                                                                                                    
                                                                                                    
                                                                                                    
                                                                                                    
                                                                                                    
                                                                                                    
                                                                                                    
                                                                                                    
                                                                                                    
                                                                                                    
                                                                                                    
                                                                                                    
                                                                                                    
                                                                                                    
                                                                                                    
                                                                                                    
                                                                                                    
                                                                                                    
                                                                                                    
                           
<?xpacket end="w"?></metadata>
<defs>
    <style>
      .cls-1 {
        fill: #07a1fb;
        fill-rule: evenodd;
      }
    </style>
  </defs>
  <path class="cls-1" d="M1509.5,1413.01a8.641,8.641,0,1,1,8.51-8.64A8.583,8.583,0,0,1,1509.5,1413.01Zm0-15.56a6.916,6.916,0,1,0,6.81,6.92A6.874,6.874,0,0,0,1509.5,1397.45Zm-6.81,0a0.816,0.816,0,0,1-.6-0.25,0.857,0.857,0,0,1,0-1.22l1.7-1.73a0.833,0.833,0,0,1,1.2,0,0.857,0.857,0,0,1,0,1.22l-1.7,1.73A0.832,0.832,0,0,1,1502.69,1397.45Zm13.62,0a0.855,0.855,0,0,1-.61-0.25l-1.7-1.73a0.875,0.875,0,0,1,0-1.22,0.845,0.845,0,0,1,1.21,0l1.7,1.73a0.875,0.875,0,0,1,0,1.22A0.849,0.849,0,0,1,1516.31,1397.45Zm-5.11,9.51a0.857,0.857,0,0,1-.6-0.25l-1.45-1.48a1.7,1.7,0,0,1-.5-1.22v-3.1a0.85,0.85,0,1,1,1.7,0v3.1l1.45,1.47a0.888,0.888,0,0,1,0,1.23A0.857,0.857,0,0,1,1511.2,1406.96Z" transform="translate(-1501 -1394)"/>
</svg>
