<svg xmlns="http://www.w3.org/2000/svg" width="31.16" height="28.969" viewBox="0 0 31.16 28.969">
  <defs>
    <style>
      .cls-1 {
        fill-rule: evenodd;
        opacity: 0.1;
      }
    </style>
  </defs>
  <path class="cls-1" d="M1270.67,318a2.084,2.084,0,0,1,3.62.141c1.25,2.427,2.38,4.922,3.6,7.372,2.79,0.366,5.6.645,8.39,1.043a1.986,1.986,0,0,1,1.23,3.276c-2.01,1.98-4.18,3.816-6.25,5.739,0.5,2.68,1.09,5.342,1.56,8.022a2.045,2.045,0,0,1-2.93,2.153c-2.52-1.25-4.96-2.653-7.46-3.948-2.4,1.267-4.77,2.58-7.18,3.826a2.134,2.134,0,0,1-3.04-.808,3.556,3.556,0,0,1,.01-2.234q0.72-3.5,1.39-7.007c-2.02-1.863-4.09-3.677-6.1-5.568a1.978,1.978,0,0,1-.13-2.829,3.689,3.689,0,0,1,2.39-.794c2.41-.28,4.81-0.582,7.22-0.871,1.24-2.5,2.38-5.049,3.68-7.513h0Z" transform="translate(-1256.84 -317)"/>
</svg>
