<!-- Generated by IcoMoon.io -->
<svg version="1.1" xmlns="http://www.w3.org/2000/svg" width="838" height="1024" viewBox="0 0 838 1024">
<title></title>
<g id="icomoon-ignore">
</g>
<path d="M791.552 372.736h-232.448c-51.464 0-93.184-41.72-93.184-93.184v0-233.472c-0.326-2.081-0.512-4.482-0.512-6.926 0-26.015 21.089-47.104 47.104-47.104s47.104 21.089 47.104 47.104c0 2.444-0.186 4.845-0.545 7.188l0.033-0.262v233.472h232.448c22.865 3.494 40.178 23.021 40.178 46.592s-17.313 43.098-39.916 46.559l-0.262 0.033zM744.448 1024h-651.264c-0.002 0-0.004 0-0.006 0-51.104 0-92.6-41.138-93.178-92.105v-838.711c0-51.464 41.72-93.184 93.184-93.184v0h484.352l260.096 260.096v671.744c0 51.464-41.72 93.184-93.184 93.184v0zM93.184 93.184v0 838.656h651.264v-632.832l-204.8-205.824h-446.464z"></path>
</svg>
