<svg xmlns="http://www.w3.org/2000/svg" width="21.031" height="22" viewBox="0 0 21.031 22">
  <metadata><?xpacket begin="﻿" id="W5M0MpCehiHzreSzNTczkc9d"?>
<x:xmpmeta xmlns:x="adobe:ns:meta/" x:xmptk="Adobe XMP Core 5.6-c138 79.159824, 2016/09/14-01:09:01        ">
   <rdf:RDF xmlns:rdf="http://www.w3.org/1999/02/22-rdf-syntax-ns#">
      <rdf:Description rdf:about=""/>
   </rdf:RDF>
</x:xmpmeta>
                                                                                                    
                                                                                                    
                                                                                                    
                                                                                                    
                                                                                                    
                                                                                                    
                                                                                                    
                                                                                                    
                                                                                                    
                                                                                                    
                                                                                                    
                                                                                                    
                                                                                                    
                                                                                                    
                                                                                                    
                                                                                                    
                                                                                                    
                                                                                                    
                                                                                                    
                                                                                                    
                           
<?xpacket end="w"?></metadata>
<defs>
    <style>
      .cls-1 {
        fill: #fda00a;
        fill-rule: evenodd;
      }
    </style>
  </defs>
  <path class="cls-1" d="M277.439,156h-3.976a2.015,2.015,0,0,1-1.987-2.039V150.9a0.994,0.994,0,1,0-1.988,0v3.058A2.015,2.015,0,0,1,267.5,156h-3.975a2.015,2.015,0,0,1-1.987-2.039v-6.714l-0.994-1.019a2.078,2.078,0,0,1,0-2.883l8.533-8.753a1.953,1.953,0,0,1,2.81,0l8.533,8.753a2.079,2.079,0,0,1,0,2.882l-0.994,1.02v6.714A2.015,2.015,0,0,1,277.439,156Zm-6.957-8.155a3.023,3.023,0,0,1,2.981,3.058v3.058h3.976v-6.714a2.049,2.049,0,0,1,.582-1.442l0.994-1.019-8.533-8.752-8.533,8.752,0.994,1.02a2.053,2.053,0,0,1,.582,1.441v6.714H267.5V150.9A3.024,3.024,0,0,1,270.482,147.84Z" transform="translate(-259.969 -134)"/>
</svg>
