<svg xmlns="http://www.w3.org/2000/svg" width="22" height="22" viewBox="0 0 22 22">
	<metadata><?xpacket begin="﻿" id="W5M0MpCehiHzreSzNTczkc9d"?>
<x:xmpmeta xmlns:x="adobe:ns:meta/" x:xmptk="Adobe XMP Core 5.6-c138 79.159824, 2016/09/14-01:09:01				">
	 <rdf:RDF xmlns:rdf="http://www.w3.org/1999/02/22-rdf-syntax-ns#">
			<rdf:Description rdf:about=""/>
	 </rdf:RDF>
</x:xmpmeta>
																																																		
																																																		
																																																		
																																																		
																																																		
																																																		
																																																		
																																																		
																																																		
																																																		
																																																		
																																																		
																																																		
																																																		
																																																		
																																																		
																																																		
																																																		
																																																		
																																																		
													 
<?xpacket end="w"?></metadata>
<defs>
		<style>
			.cls-1 {
				fill: #1a70c5;
				fill-rule: evenodd;
			}
		</style>
	</defs>
	<path class="cls-1" d="M1365.01,154.006h-14.02a4.011,4.011,0,0,1-4.01-4V140a4.011,4.011,0,0,1,4.01-4h14.02a4.009,4.009,0,0,1,4,4V150A4.009,4.009,0,0,1,1365.01,154.006ZM1350.99,138a2,2,0,0,0-2,2V150a2,2,0,0,0,2,2h14.02a2,2,0,0,0,2-2V140a2,2,0,0,0-2-2h-14.02ZM1362,158.009h-8.01a1,1,0,0,1,0-2H1362A1,1,0,0,1,1362,158.009Zm-4,0a1,1,0,0,1-1-1v-4a1,1,0,1,1,2,0v4A1,1,0,0,1,1358,158.009Zm10.01-8h-20.02a1,1,0,1,1,0-2h20.02A1,1,0,0,1,1368.01,150Z" transform="translate(-1347 -136)"/>
</svg>
