<!-- Generated by IcoMoon.io -->
<svg version="1.1" xmlns="http://www.w3.org/2000/svg" width="1024" height="1024" viewBox="0 0 1024 1024">
<title></title>
<g id="icomoon-ignore">
</g>
<path d="M838.656 837.632h-653.312c-0.001 0-0.002 0-0.003 0-102.568 0-185.784-82.857-186.365-185.289v-465.975c0-102.928 83.44-186.368 186.368-186.368v0h653.312c102.928 0 186.368 83.44 186.368 186.368v0 464.896c0 102.928-83.44 186.368-186.368 186.368v0zM185.344 93.184c-51.022 0.579-92.16 42.074-92.16 93.178 0 0.002 0 0.004 0 0.006v0 464.896c0 0.002 0 0.004 0 0.006 0 51.104 41.138 92.6 92.105 93.178h653.367c51.464 0 93.184-41.72 93.184-93.184v0-464.896c0-51.464-41.72-93.184-93.184-93.184v0h-653.312zM698.368 1024h-372.736c-21.483-4.672-37.336-23.525-37.336-46.080s15.853-41.408 37.024-46.023l0.311-0.057h372.736c21.483 4.672 37.336 23.525 37.336 46.080s-15.853 41.408-37.024 46.023l-0.311 0.057zM512 1024c-25.221-0.56-45.52-20.859-46.079-46.027l-0.001-0.053v-186.368c-0.326-2.081-0.512-4.482-0.512-6.926 0-26.015 21.089-47.104 47.104-47.104s47.104 21.089 47.104 47.104c0 2.444-0.186 4.845-0.545 7.188l0.033-0.262v186.368c-0.574 25.571-21.438 46.080-47.093 46.080-0.004 0-0.008 0-0.012 0h0.001zM977.92 652.288h-931.84c-2.081 0.326-4.482 0.512-6.926 0.512-26.015 0-47.104-21.089-47.104-47.104s21.089-47.104 47.104-47.104c2.444 0 4.845 0.186 7.188 0.545l-0.262-0.033h931.84c21.483 4.672 37.336 23.525 37.336 46.080s-15.853 41.408-37.024 46.023l-0.311 0.057z"></path>
</svg>
