<svg xmlns="http://www.w3.org/2000/svg" width="18" height="22" viewBox="0 0 18 22">
  <metadata><?xpacket begin="﻿" id="W5M0MpCehiHzreSzNTczkc9d"?>
<x:xmpmeta xmlns:x="adobe:ns:meta/" x:xmptk="Adobe XMP Core 5.6-c138 79.159824, 2016/09/14-01:09:01        ">
   <rdf:RDF xmlns:rdf="http://www.w3.org/1999/02/22-rdf-syntax-ns#">
      <rdf:Description rdf:about=""/>
   </rdf:RDF>
</x:xmpmeta>
                                                                                                    
                                                                                                    
                                                                                                    
                                                                                                    
                                                                                                    
                                                                                                    
                                                                                                    
                                                                                                    
                                                                                                    
                                                                                                    
                                                                                                    
                                                                                                    
                                                                                                    
                                                                                                    
                                                                                                    
                                                                                                    
                                                                                                    
                                                                                                    
                                                                                                    
                                                                                                    
                           
<?xpacket end="w"?></metadata>
<defs>
    <style>
      .cls-1 {
        fill: #fda00a;
        fill-rule: evenodd;
      }
    </style>
  </defs>
  <path class="cls-1" d="M1320,69.012a2.033,2.033,0,0,1-1.18-.377,2.007,2.007,0,0,1-.83-1.624v-13.9a2,2,0,0,1,1.37-1.9L1331.99,47V63.676a2,2,0,0,1-1.37,1.9l-9.99,3.335A2,2,0,0,1,1320,69.012Zm9.99-19.236-10,3.335v13.9l10-3.335v-13.9Zm-15,15.621a1,1,0,0,1-1-1V49.389a2,2,0,0,1,2-2h14.83a1,1,0,0,1,0,2h-14.83V64.4A1,1,0,0,1,1314.99,65.4Zm8-3a1,1,0,0,1-1-1v-3a1,1,0,1,1,2,0v3A1,1,0,0,1,1322.99,62.4Z" transform="translate(-1314 -47)"/>
</svg>
