<!-- Generated by IcoMoon.io -->
<svg version="1.1" xmlns="http://www.w3.org/2000/svg" width="838" height="1024" viewBox="0 0 838 1024">
<title></title>
<g id="icomoon-ignore">
</g>
<path d="M279.552 1025.024c-20.835-0.156-40.030-7.051-55.546-18.61l0.25 0.178c-23.419-16.923-38.572-44.033-38.912-74.699v-647.221c-0.001-0.126-0.001-0.275-0.001-0.424 0-41.217 26.76-76.184 63.855-88.475l0.658-0.189 587.776-195.584v776.192c-0.118 40.732-26.352 75.307-62.833 87.868l-0.655 0.196-465.92 155.648c-8.516 3.051-18.343 4.909-28.576 5.118l-0.096 0.002zM744.448 129.024l-465.92 155.648v647.168l465.92-155.648v-647.168zM46.080 856.064c-0.003 0-0.007 0-0.011 0-25.655 0-46.519-20.509-47.092-46.027l-0.001-0.053v-698.368c0-0.002 0-0.004 0-0.006 0-51.464 41.72-93.184 93.184-93.184 0.36 0 0.72 0.002 1.079 0.006h690.121c22.865 3.494 40.178 23.021 40.178 46.592s-17.313 43.098-39.916 46.559l-0.262 0.033h-690.176v698.368c-0.574 25.571-21.438 46.080-47.093 46.080-0.004 0-0.008 0-0.012 0h0.001zM418.816 716.8c-26.015 0-47.104-21.089-47.104-47.104v0-139.264c-0.326-2.081-0.512-4.482-0.512-6.926 0-26.015 21.089-47.104 47.104-47.104s47.104 21.089 47.104 47.104c0 2.444-0.186 4.845-0.545 7.188l0.033-0.262v139.264c0 0.003 0 0.007 0 0.011 0 25.655-20.509 46.519-46.027 47.092l-0.053 0.001z"></path>
</svg>
