<!-- Generated by IcoMoon.io -->
<svg version="1.1" xmlns="http://www.w3.org/2000/svg" width="1024" height="1024" viewBox="0 0 1024 1024">
<title></title>
<g id="icomoon-ignore">
</g>
<path d="M938.385 864.801c0 0-111.888-192.528-132.048-226.8 23.184-7.056 47.376-13.104 57.456-31.248 17.136-29.232-13.104-76.608-5.040-107.856 8.064-32.256 56.448-59.472 56.448-91.728s-50.4-69.552-58.464-100.8c-7.056-31.248 22.176-79.632 5.040-108.864-16.128-28.224-72.576-26.208-95.76-48.384-24.192-23.184-24.192-79.632-52.416-94.752-29.232-15.12-75.6 16.128-107.856 9.072-32.256-8.064-60.48-55.44-93.744-55.44s-86.688 54.432-94.752 56.448c-32.256 7.056-79.632-24.192-107.856-9.072-29.232 16.128-29.232 71.568-52.416 94.752-23.184 22.176-79.632 20.16-96.768 49.392-16.128 29.232 13.104 76.608 6.048 107.856-8.064 31.248-57.456 63.504-57.456 98.784 0 33.264 47.376 60.48 55.44 92.736 8.064 31.248-21.168 78.624-5.040 107.856 9.072 16.128 30.24 22.176 51.408 28.224 2.016 1.008 7.056 4.032 4.032 8.064-14.112 25.2-129.024 222.768-129.024 222.768-9.072 16.128-2.016 29.232 16.128 30.24l88.704 4.032c18.144 1.008 41.328 14.112 51.408 29.232l47.376 75.6c9.072 15.12 25.2 15.12 34.272-1.008 0 0 133.056-229.824 133.056-229.824 2.016-3.024 5.040-2.016 6.048-1.008 15.12 12.096 35.28 24.192 52.416 24.192 16.128 0 31.248-11.088 46.368-24.192 2.016-1.008 5.040-3.024 7.056 1.008 0 0 133.056 228.816 133.056 228.816 9.072 16.128 24.192 16.128 34.272 0l47.376-74.592c9.072-16.128 32.256-29.232 50.4-30.24l88.704-3.024c18.144-1.008 25.2-15.12 16.128-30.24zM659.168 658.16c-97.776 57.456-215.712 51.408-306.433-6.048-132.048-84.672-175.392-260.066-95.76-397.153 79.632-139.104 257.042-187.488 397.153-111.888 0 1.008 1.008 1.008 2.016 2.016 1.008 0 2.016 1.008 3.024 1.008 43.344 25.2 80.64 61.488 106.848 107.856 82.656 141.12 34.272 321.553-106.848 404.209zM636.992 188.431c0-1.008-1.008-1.008-1.008-1.008-74.592-43.344-170.352-46.368-249.985 0-118.944 68.544-159.264 221.76-89.712 339.697 20.16 36.288 49.392 65.52 82.656 86.688 3.024 1.008 6.048 3.024 9.072 5.040 117.936 68.544 271.156 28.224 339.697-90.72s28.224-271.156-90.72-339.697zM667.232 381.968l-42.336 40.32c-12.096 13.104-20.16 37.296-17.136 55.44l9.072 57.456c3.024 17.136-7.056 25.2-23.184 17.136l-51.408-27.216c-16.128-9.072-42.336-9.072-57.456 0l-51.408 27.216c-16.128 8.064-26.208 0-23.184-17.136l9.072-57.456c3.024-18.144-5.040-42.336-17.136-55.44l-42.336-40.32c-12.096-12.096-9.072-25.2 9.072-27.216l57.456-8.064c18.144-3.024 39.312-18.144 47.376-34.272l25.2-52.416c8.064-16.128 21.168-16.128 29.232 0l25.2 52.416c8.064 16.128 29.232 31.248 47.376 34.272l57.456 8.064c17.136 2.016 21.168 15.12 9.072 27.216z"></path>
</svg>
