<svg xmlns="http://www.w3.org/2000/svg" width="22" height="18" viewBox="0 0 22 18">
  <defs>
    <style>
      .cls-1 {
        fill: #2180da;
        fill-rule: evenodd;
      }
    </style>
  </defs>
  <path class="cls-1" d="M286,590.011H272a4.006,4.006,0,0,1-4-4V576a4.006,4.006,0,0,1,4-4h14a4.005,4.005,0,0,1,4,4v10.009A4.005,4.005,0,0,1,286,590.011ZM272,574a2,2,0,0,0-2,2v10.009a2,2,0,0,0,2,2h14a2,2,0,0,0,2-2V576a2,2,0,0,0-2-2H272Zm17,6H269a1,1,0,0,1,0-2h20A1,1,0,0,1,289,580Zm-4,4h-3a1,1,0,0,1,0-2h3A1,1,0,0,1,285,584.006Z" transform="translate(-268 -572)"/>
</svg>
