<svg xmlns="http://www.w3.org/2000/svg" width="18" height="22" viewBox="0 0 18 22">
  <defs>
    <style>
      .cls-1 {
        fill: #1a70c5;
        fill-rule: evenodd;
      }
    </style>
  </defs>
  <path class="cls-1" d="M287,380h-5a2,2,0,0,1-2-2v-5a1,1,0,1,1,2,0v5h5A1,1,0,0,1,287,380Zm-1,14.008H272a2,2,0,0,1-2-2V374a2,2,0,0,1,2-2h10.411L288,377.588V392.01A2,2,0,0,1,286,394.011ZM272,374h0v18.01h14V378.416L281.584,374H272Zm3,14h8a1,1,0,0,1,0,2h-8A1,1,0,0,1,275,388Zm0-4h8a1,1,0,0,1,0,2h-8A1,1,0,0,1,275,384Zm0-6h2a1,1,0,0,1,0,2h-2A1,1,0,0,1,275,378Z" transform="translate(-270 -372)"/>
</svg>
