<svg width="25" height="25" viewBox="0 0 25 25" fill="none" xmlns="http://www.w3.org/2000/svg">
<circle cx="12.5" cy="12.5" r="12.5" fill="black"/>
<path d="M8.81 6.95C9.01667 6.75667 9.24333 6.57333 9.49 6.4C9.74333 6.22667 10.0167 6.07333 10.31 5.94C10.61 5.80667 10.93 5.70333 11.27 5.63C11.6167 5.55 11.99 5.51 12.39 5.51C12.9167 5.51 13.4033 5.58667 13.85 5.74C14.3033 5.89333 14.6933 6.11 15.02 6.39C15.3467 6.67 15.6033 7.01 15.79 7.41C15.9767 7.81 16.07 8.26 16.07 8.76C16.07 9.26667 15.9933 9.70333 15.84 10.07C15.6933 10.4367 15.5033 10.76 15.27 11.04C15.0433 11.3133 14.7933 11.5533 14.52 11.76C14.2533 11.96 14 12.15 13.76 12.33C13.52 12.51 13.3133 12.69 13.14 12.87C12.9733 13.05 12.8767 13.25 12.85 13.47L12.67 15H11.45L11.33 13.34C11.3033 13.04 11.36 12.78 11.5 12.56C11.64 12.3333 11.8233 12.1233 12.05 11.93C12.2767 11.73 12.5267 11.5367 12.8 11.35C13.0733 11.1567 13.3267 10.9433 13.56 10.71C13.8 10.4767 14 10.2133 14.16 9.92C14.32 9.62 14.4 9.26333 14.4 8.85C14.4 8.56333 14.3433 8.30333 14.23 8.07C14.1167 7.83667 13.9633 7.64 13.77 7.48C13.5767 7.31333 13.3467 7.18667 13.08 7.1C12.82 7.01333 12.54 6.97 12.24 6.97C11.8333 6.97 11.4833 7.02 11.19 7.12C10.9033 7.22 10.66 7.33 10.46 7.45C10.26 7.57 10.0967 7.68 9.97 7.78C9.85 7.88 9.75 7.93 9.67 7.93C9.50333 7.93 9.37333 7.85333 9.28 7.7L8.81 6.95ZM10.76 18.9C10.76 18.7267 10.79 18.5633 10.85 18.41C10.9167 18.2567 11.0033 18.1233 11.11 18.01C11.2233 17.8967 11.3567 17.8067 11.51 17.74C11.6633 17.6733 11.8267 17.64 12 17.64C12.1733 17.64 12.3367 17.6733 12.49 17.74C12.6433 17.8067 12.7767 17.8967 12.89 18.01C13.0033 18.1233 13.0933 18.2567 13.16 18.41C13.2267 18.5633 13.26 18.7267 13.26 18.9C13.26 19.08 13.2267 19.2467 13.16 19.4C13.0933 19.5467 13.0033 19.6767 12.89 19.79C12.7767 19.9033 12.6433 19.99 12.49 20.05C12.3367 20.1167 12.1733 20.15 12 20.15C11.8267 20.15 11.6633 20.1167 11.51 20.05C11.3567 19.99 11.2233 19.9033 11.11 19.79C11.0033 19.6767 10.9167 19.5467 10.85 19.4C10.79 19.2467 10.76 19.08 10.76 18.9Z" fill="white"/>
</svg>
