<svg xmlns="http://www.w3.org/2000/svg" width="9" height="18" viewBox="0 0 9 18">
	<defs>
		<style>
			.cls-1 {
				fill: #34b734;
				fill-rule: evenodd;
			}
		</style>
	</defs>
	<path class="cls-1" d="M740.538,1502a4.666,4.666,0,0,0-4.541,4.74,1.4,1.4,0,1,0,2.8,0,1.789,1.789,0,0,1,1.743-1.82,1.771,1.771,0,0,1,1.706,1.82,3.151,3.151,0,0,1-1.093,2.22,6.34,6.34,0,0,0-2.05,4.72,1.435,1.435,0,0,0,1.418,1.48,1.415,1.415,0,0,0,1.38-1.48,3.581,3.581,0,0,1,1.264-2.74,5.869,5.869,0,0,0,1.84-4.22,4.574,4.574,0,0,0-4.465-4.72h0Zm0,14.48a1.761,1.761,0,0,0,0,3.52A1.762,1.762,0,0,0,740.538,1516.48Z" transform="translate(-736 -1502)"/>
</svg>
