<svg xmlns="http://www.w3.org/2000/svg" width="22" height="22" viewBox="0 0 22 22">
	<metadata><?xpacket begin="﻿" id="W5M0MpCehiHzreSzNTczkc9d"?>
<x:xmpmeta xmlns:x="adobe:ns:meta/" x:xmptk="Adobe XMP Core 5.6-c138 79.159824, 2016/09/14-01:09:01				">
	 <rdf:RDF xmlns:rdf="http://www.w3.org/1999/02/22-rdf-syntax-ns#">
			<rdf:Description rdf:about=""/>
	 </rdf:RDF>
</x:xmpmeta>
																																																		
																																																		
																																																		
																																																		
																																																		
																																																		
																																																		
																																																		
																																																		
																																																		
																																																		
																																																		
																																																		
																																																		
																																																		
																																																		
																																																		
																																																		
																																																		
																																																		
													 
<?xpacket end="w"?></metadata>
<defs>
		<style>
			.cls-1 {
				fill: #fda00a;
				fill-rule: evenodd;
			}
		</style>
	</defs>
	<path class="cls-1" d="M1444.01,61a1,1,0,0,1-1-1v-1.17a2.963,2.963,0,0,1,.88-2.12l1.83-1.827a1.029,1.029,0,0,0,.29-0.707V54.006a2,2,0,0,0-4,0,1,1,0,0,1-2,0,4,4,0,0,1,8,0v0.171a2.965,2.965,0,0,1-.88,2.12l-1.83,1.826a0.986,0.986,0,0,0-.29.707V60A1,1,0,0,1,1444.01,61Zm0,6.994a10.991,10.991,0,1,1,11-10.991A11.011,11.011,0,0,1,1444.01,67.994Zm0-19.983a8.992,8.992,0,1,0,9,8.992A9.008,9.008,0,0,0,1444.01,48.011Zm1,14.987a1,1,0,1,1-1-1A1,1,0,0,1,1445.01,63Z" transform="translate(-1433 -46)"/>
</svg>
