<svg xmlns="http://www.w3.org/2000/svg" width="19" height="19.03" viewBox="0 0 19 19.03">
  <metadata><?xpacket begin="﻿" id="W5M0MpCehiHzreSzNTczkc9d"?>
<x:xmpmeta xmlns:x="adobe:ns:meta/" x:xmptk="Adobe XMP Core 5.6-c138 79.159824, 2016/09/14-01:09:01        ">
   <rdf:RDF xmlns:rdf="http://www.w3.org/1999/02/22-rdf-syntax-ns#">
      <rdf:Description rdf:about=""/>
   </rdf:RDF>
</x:xmpmeta>
                                                                                                    
                                                                                                    
                                                                                                    
                                                                                                    
                                                                                                    
                                                                                                    
                                                                                                    
                                                                                                    
                                                                                                    
                                                                                                    
                                                                                                    
                                                                                                    
                                                                                                    
                                                                                                    
                                                                                                    
                                                                                                    
                                                                                                    
                                                                                                    
                                                                                                    
                                                                                                    
                           
<?xpacket end="w"?></metadata>
<defs>
    <style>
      .cls-1 {
        fill: #fcb119;
        fill-rule: evenodd;
      }
    </style>
  </defs>
  <path class="cls-1" d="M1379.38,1413.01a1.7,1.7,0,0,1-1.01-.33,1.758,1.758,0,0,1-.71-1.81l1.05-4.73-3.21-3.22a1.753,1.753,0,0,1,1.02-2.98l4.19-.52,2.22-4.45a1.756,1.756,0,0,1,3.14,0l2.22,4.45,4.19,0.52a1.753,1.753,0,0,1,1.02,2.98l-3.22,3.22,1.05,4.73a1.756,1.756,0,0,1-2.64,1.87l-4.19-2.62-4.19,2.62A1.758,1.758,0,0,1,1379.38,1413.01Zm5.12-4.96,5.12,3.2-1.26-5.67,3.9-3.9-5.12-.64-2.64-5.29-2.64,5.29-5.12.64,3.9,3.9-1.26,5.67Z" transform="translate(-1375 -1394)"/>
</svg>
