<svg xmlns="http://www.w3.org/2000/svg" width="22" height="22" viewBox="0 0 22 22">
  <metadata><?xpacket begin="﻿" id="W5M0MpCehiHzreSzNTczkc9d"?>
<x:xmpmeta xmlns:x="adobe:ns:meta/" x:xmptk="Adobe XMP Core 5.6-c138 79.159824, 2016/09/14-01:09:01        ">
   <rdf:RDF xmlns:rdf="http://www.w3.org/1999/02/22-rdf-syntax-ns#">
      <rdf:Description rdf:about=""/>
   </rdf:RDF>
</x:xmpmeta>
                                                                                                    
                                                                                                    
                                                                                                    
                                                                                                    
                                                                                                    
                                                                                                    
                                                                                                    
                                                                                                    
                                                                                                    
                                                                                                    
                                                                                                    
                                                                                                    
                                                                                                    
                                                                                                    
                                                                                                    
                                                                                                    
                                                                                                    
                                                                                                    
                                                                                                    
                                                                                                    
                           
<?xpacket end="w"?></metadata>
<defs>
    <style>
      .cls-1 {
        fill: #1a70c5;
        fill-rule: evenodd;
      }
    </style>
  </defs>
  <path class="cls-1" d="M1513.3,158.011h-12.22a4.077,4.077,0,0,1-4.07-4.083V141.677a4.078,4.078,0,0,1,4.07-4.084h5.09a1.021,1.021,0,0,1,0,2.042h-5.09a2.046,2.046,0,0,0-2.04,2.042v12.251a2.046,2.046,0,0,0,2.04,2.042h12.22a2.04,2.04,0,0,0,2.04-2.042v-5.1a1.02,1.02,0,1,1,2.04,0v5.1A4.086,4.086,0,0,1,1513.3,158.011Zm-4.49-7.146h-4.67v-4.682a2.044,2.044,0,0,1,.59-1.443l8.15-8.167a2.033,2.033,0,0,1,2.88,0l2.64,2.639a2.056,2.056,0,0,1,0,2.888l-8.15,8.167A2.035,2.035,0,0,1,1508.81,150.865Zm-2.64-2.042h2.64l8.15-8.167-2.64-2.64-8.15,8.167-0.72-.721,0.72,0.721v2.64Zm-2.03,3.063a1.021,1.021,0,0,1-.72-1.743l1.2-1.2a1.019,1.019,0,0,1,1.44,1.443l-1.2,1.2A1.018,1.018,0,0,1,1504.14,151.886Zm11.2-7.146a1.018,1.018,0,0,1-.72-0.3l-4.07-4.084a1.019,1.019,0,1,1,1.44-1.443l4.07,4.083A1.021,1.021,0,0,1,1515.34,144.74Z" transform="translate(-1497 -136)"/>
</svg>
