<!-- Generated by IcoMoon.io -->
<svg version="1.1" xmlns="http://www.w3.org/2000/svg" width="1024" height="1024" viewBox="0 0 1024 1024">
<title></title>
<g id="icomoon-ignore">
</g>
<path d="M758.784 1025.024h-568.32c-0.001 0-0.002 0-0.003 0-104.625 0-189.44-84.815-189.44-189.44 0-0.36 0.001-0.72 0.003-1.079v0.055-570.368c-0.002-0.304-0.003-0.664-0.003-1.024 0-104.625 84.815-189.44 189.44-189.44 0.001 0 0.002 0 0.003 0h236.544c26.298 0 47.616 21.318 47.616 47.616s-21.318 47.616-47.616 47.616v0h-236.544c-52.595 0-95.232 42.637-95.232 95.232v0 570.368c0 52.595 42.637 95.232 95.232 95.232v0h568.32c52.595 0 95.232-42.637 95.232-95.232v0-237.568c0-26.015 21.089-47.104 47.104-47.104s47.104 21.089 47.104 47.104v0 237.568c0 0.001 0 0.002 0 0.003 0 104.83-84.691 189.88-189.385 190.461h-0.055zM549.888 692.224h-217.088v-218.112c-0.008-0.454-0.012-0.989-0.012-1.525 0-25.667 10.154-48.962 26.664-66.088l-0.028 0.029 379.904-379.904c17.093-17.323 40.829-28.053 67.072-28.053s49.979 10.73 67.062 28.043l122.89 122.89c16.835 17.315 27.216 40.981 27.216 67.072s-10.381 49.757-27.237 67.094l-379.882 379.882c-16.952 17.342-40.443 28.23-66.478 28.671l-0.082 0.001zM427.008 596.992h122.88l378.88-379.904-122.88-122.88-378.88 379.904v122.88zM332.8 739.328c-0.294 0.007-0.64 0.010-0.987 0.010-26.015 0-47.104-21.089-47.104-47.104 0-13.255 5.475-25.232 14.287-33.791l0.011-0.011 55.296-56.32c8.648-8.648 20.595-13.997 33.792-13.997 26.393 0 47.789 21.396 47.789 47.789 0 13.197-5.349 25.144-13.997 33.792v0l-56.32 55.296c-8.329 8.6-19.886 14.031-32.712 14.335l-0.056 0.001zM854.016 406.528c-0.287 0.006-0.626 0.010-0.966 0.010-12.77 0-24.353-5.081-32.837-13.332l0.011 0.011-189.44-190.464c-8.736-8.607-14.148-20.568-14.148-33.792 0-26.194 21.234-47.428 47.428-47.428 12.97 0 24.723 5.206 33.286 13.642l-0.006-0.006 189.44 190.464c8.817 8.57 14.288 20.542 14.288 33.792 0 25.998-21.062 47.077-47.053 47.104h-0.003z"></path>
</svg>
