<svg xmlns="http://www.w3.org/2000/svg" width="41.6" height="41.594"><path d="M40.82 37.103a2.625 2.625 0 01-3.69 3.735.146.146 0 01-.04-.037l-4.5-4.5c-.78-.776-1.55-1.553-2.33-2.33a17.95 17.95 0 01-1.77 1.2 20.376 20.376 0 01-3.37 1.552 15.984 15.984 0 01-2.92.76 18.5 18.5 0 01-7.23-.111 16.07 16.07 0 01-2.9-.871 19.467 19.467 0 01-3.3-1.647 19.681 19.681 0 01-2.96-2.325 20.226 20.226 0 01-2.47-2.9 17 17 0 01-1.54-2.678 21.162 21.162 0 01-1.25-3.46 18.646 18.646 0 01-.45-6.613 19.646 19.646 0 01.72-3.562 18.967 18.967 0 011.41-3.379 19.393 19.393 0 012.08-3.085 16.388 16.388 0 012.24-2.291A18.57 18.57 0 0112.99.912a16.36 16.36 0 012.94-.694 18.495 18.495 0 017.23.241 19.861 19.861 0 013.45 1.171 18.358 18.358 0 015.63 3.867 18.589 18.589 0 013.58 4.972 20.193 20.193 0 011.31 3.442 19.987 19.987 0 01.6 3.6 15.836 15.836 0 01-.02 3 19.7 19.7 0 01-.65 3.573 19.138 19.138 0 01-3.09 6.154c.93.937 1.87 1.874 2.81 2.812 1.35 1.361 2.69 2.707 4.04 4.053zm-8.39-19.978a16.5 16.5 0 00-.95-3.517 16.232 16.232 0 00-1.81-3.1c-.36-.437-.72-.868-1.12-1.268A13.647 13.647 0 008 10.646a13.719 13.719 0 00-2.64 6.368 16.961 16.961 0 00-.01 3.632 16.457 16.457 0 00.94 3.517 13.78 13.78 0 004.36 5.613 13.547 13.547 0 006.37 2.634 13.665 13.665 0 007.14-.928 16.173 16.173 0 003.09-1.807 16.911 16.911 0 002.53-2.552 17.346 17.346 0 001.7-2.952 13.816 13.816 0 00.95-7.046zm-7.02 4.425H21.5v3.956a2.63 2.63 0 01-5.26-.038V21.55h-3.95a2.628 2.628 0 01.03-5.255h3.92v-3.956a2.63 2.63 0 015.26.038v3.918h3.95a2.628 2.628 0 11-.04 5.255z" fill="#8292a7" fill-rule="evenodd"/></svg>