<svg xmlns="http://www.w3.org/2000/svg" width="21" height="22" viewBox="0 0 21 22">
  <defs>
    <style>
      .cls-1 {
        fill: #2180da;
        fill-rule: evenodd;
      }
    </style>
  </defs>
  <path class="cls-1" d="M278.5,678.006a3,3,0,1,1,3.058-3A3.034,3.034,0,0,1,278.5,678.006Zm0-4a1,1,0,1,0,1.019,1A1.011,1.011,0,0,0,278.5,674Zm1.019,12.006h-2.039a2.022,2.022,0,0,1-2.039-2v-0.34a1.975,1.975,0,0,0-1.019-1.733,2.055,2.055,0,0,0-2.039,0l-0.3.17a2.063,2.063,0,0,1-2.785-.732l-1.02-1.733a1.965,1.965,0,0,1-.2-1.518,2,2,0,0,1,.952-1.216l0.3-.17a1.983,1.983,0,0,0,0-3.466l-0.3-.17a2,2,0,0,1-.951-1.215,1.967,1.967,0,0,1,.2-1.519l1.02-1.733a2.062,2.062,0,0,1,2.785-.732l0.3,0.17a2.057,2.057,0,0,0,2.039,0,1.975,1.975,0,0,0,1.019-1.733V666a2.022,2.022,0,0,1,2.039-2h2.039a2.022,2.022,0,0,1,2.039,2v0.34a1.975,1.975,0,0,0,1.019,1.733,2.055,2.055,0,0,0,2.039,0l0.3-.17a2.064,2.064,0,0,1,2.786.732l1.019,1.733a1.962,1.962,0,0,1,.2,1.519,1.989,1.989,0,0,1-.952,1.215l-0.3.17a1.982,1.982,0,0,0,0,3.466l0.3,0.171a1.988,1.988,0,0,1,.951,1.215,1.96,1.96,0,0,1-.2,1.518l-1.019,1.733a2.062,2.062,0,0,1-2.786.732l-0.3-.17a2.052,2.052,0,0,0-2.039,0,1.975,1.975,0,0,0-1.019,1.733v0.34A2.022,2.022,0,0,1,279.518,686.01Zm-6.117-6.349a4.123,4.123,0,0,1,2.039.543,3.947,3.947,0,0,1,2.039,3.465v0.34h2.039v-0.34a3.949,3.949,0,0,1,2.039-3.465,4.1,4.1,0,0,1,4.078,0l0.3,0.17,1.02-1.733-0.3-.17a3.965,3.965,0,0,1,0-6.932l0.3-.17-1.02-1.733-0.3.17a4.107,4.107,0,0,1-4.078,0,3.951,3.951,0,0,1-2.039-3.466V666h-2.039v0.34a3.949,3.949,0,0,1-2.039,3.466,4.1,4.1,0,0,1-4.077,0l-0.3-.17-1.02,1.733,0.3,0.17a3.966,3.966,0,0,1,0,6.933l-0.3.169,1.02,1.733,0.3-.169A4.125,4.125,0,0,1,273.4,679.661Z" transform="translate(-268 -664)"/>
</svg>
