<svg xmlns="http://www.w3.org/2000/svg" width="18" height="22" viewBox="0 0 18 22">
  <metadata><?xpacket begin="﻿" id="W5M0MpCehiHzreSzNTczkc9d"?>
<x:xmpmeta xmlns:x="adobe:ns:meta/" x:xmptk="Adobe XMP Core 5.6-c138 79.159824, 2016/09/14-01:09:01        ">
   <rdf:RDF xmlns:rdf="http://www.w3.org/1999/02/22-rdf-syntax-ns#">
      <rdf:Description rdf:about=""/>
   </rdf:RDF>
</x:xmpmeta>
                                                                                                    
                                                                                                    
                                                                                                    
                                                                                                    
                                                                                                    
                                                                                                    
                                                                                                    
                                                                                                    
                                                                                                    
                                                                                                    
                                                                                                    
                                                                                                    
                                                                                                    
                                                                                                    
                                                                                                    
                                                                                                    
                                                                                                    
                                                                                                    
                                                                                                    
                                                                                                    
                           
<?xpacket end="w"?></metadata>
<defs>
    <style>
      .cls-1 {
        fill: #fda00a;
        fill-rule: evenodd;
      }
    </style>
  </defs>
  <path class="cls-1" d="M1198.98,68.011a0.993,0.993,0,0,1-.99-1V66.451a1,1,0,0,0-.69-0.949l-3.26-1.088a2.993,2.993,0,0,1-2.05-2.848V61.451a1.968,1.968,0,0,1,.99-1.727,6.361,6.361,0,0,0,2.43-3.134l0.2-.511,0.55-.1a1,1,0,0,0,.83-0.981,0.986,0.986,0,0,0-.51-0.859l-0.49-.29V51a3.007,3.007,0,0,0-3-3h-4a1,1,0,0,0-1,1v1h-1a1,1,0,0,0-1,1v2.854l-0.5.29a0.992,0.992,0,0,0,.33,1.84l0.54,0.1,0.21,0.511a6.327,6.327,0,0,0,2.42,3.13,1.956,1.956,0,0,1,1,1.728v0.117a3.006,3.006,0,0,1-2.05,2.848l-3.27,1.088a0.994,0.994,0,0,0-.68.949V67.01a1,1,0,1,1-2,0V66.451a2.993,2.993,0,0,1,2.05-2.848l3.26-1.089a1,1,0,0,0,.69-0.949V61.449a7.936,7.936,0,0,1-3.08-3.647,2.992,2.992,0,0,1-.92-5.025V51a3.009,3.009,0,0,1,2.13-2.873,3,3,0,0,1,2.87-2.13h4a5.011,5.011,0,0,1,5,5v1.776a3,3,0,0,1-.93,5.025,7.958,7.958,0,0,1-3.11,3.674l0.04,0.089a0.994,0.994,0,0,0,.68.949l3.26,1.089a2.993,2.993,0,0,1,2.05,2.848V67.01A1,1,0,0,1,1198.98,68.011Z" transform="translate(-1182 -46)"/>
</svg>
