<svg xmlns="http://www.w3.org/2000/svg" width="20" height="20" viewBox="0 0 20 20">
	<metadata><?xpacket begin="﻿" id="W5M0MpCehiHzreSzNTczkc9d"?>
<x:xmpmeta xmlns:x="adobe:ns:meta/" x:xmptk="Adobe XMP Core 5.6-c138 79.159824, 2016/09/14-01:09:01				">
	 <rdf:RDF xmlns:rdf="http://www.w3.org/1999/02/22-rdf-syntax-ns#">
			<rdf:Description rdf:about=""/>
	 </rdf:RDF>
</x:xmpmeta>
																																																		
																																																		
																																																		
																																																		
																																																		
																																																		
																																																		
																																																		
																																																		
																																																		
																																																		
																																																		
																																																		
																																																		
																																																		
																																																		
																																																		
																																																		
																																																		
																																																		
													 
<?xpacket end="w"?></metadata>
<defs>
		<style>
			.cls-1 {
				fill: #1a70c5;
				fill-rule: evenodd;
			}
		</style>
	</defs>
	<path class="cls-1" d="M874.005,143a3,3,0,1,1,3-3A3,3,0,0,1,874.005,143Zm0-4a1,1,0,1,0,1,1A1,1,0,0,0,874.005,139Zm0,11.007a3,3,0,1,1,3-3A3,3,0,0,1,874.005,150Zm0-4a1,1,0,1,0,1,1A1,1,0,0,0,874.005,146Zm0,11.008a3,3,0,1,1,3-3A3,3,0,0,1,874.005,157.01Zm0-4a1,1,0,1,0,1,1A1,1,0,0,0,874.005,153.007ZM890,141H880a1,1,0,0,1,0-2h10A1,1,0,0,1,890,141Zm0,7H880a1,1,0,0,1,0-2h10A1,1,0,0,1,890,148Zm0,7.005H880a1,1,0,0,1,0-2h10A1,1,0,0,1,890,155.008Z" transform="translate(-871 -137)"/>
</svg>
