<svg width="20" height="20" viewBox="0 0 20 20" fill="none" xmlns="http://www.w3.org/2000/svg">
<g clip-path="url(#clip0)">
<path fill-rule="evenodd" clip-rule="evenodd" d="M19.4447 3.1964L16.7937 0.539083C16.6199 0.364795 16.4133 0.226415 16.1859 0.132055C15.9584 0.0376944 15.7145 -0.0108643 15.4682 -0.0108643C15.2219 -0.0108643 14.9781 0.0376944 14.7506 0.132055C14.5232 0.226415 14.3166 0.364795 14.1427 0.539083L2.25882 12.4411L2.1622 12.5415L1.93445 12.7671C1.55642 13.1467 1.30803 13.6358 1.22477 14.1647L0.0207301 19.2416C-0.00462391 19.3457 -0.00287543 19.4545 0.0258618 19.5577C0.054599 19.6609 0.109354 19.755 0.184869 19.831C0.260385 19.9071 0.354158 19.9627 0.457234 19.9923C0.560311 20.0219 0.669233 20.0244 0.773641 19.9999L5.84158 18.7902C6.36941 18.7056 6.85743 18.458 7.23703 18.082L7.46478 17.85L7.56079 17.7561L19.4453 5.85402C19.797 5.50098 19.9943 5.02323 19.9942 4.52521C19.9941 4.02718 19.7965 3.54928 19.4447 3.1964V3.1964ZM5.64079 17.5556L5.59437 17.5618L5.54857 17.5743L1.47014 18.546L2.44015 14.4595L2.45145 14.4093L2.45834 14.3655C2.48543 14.1967 2.54559 14.0346 2.63531 13.889L6.11639 17.3738C5.97178 17.4636 5.81148 17.5253 5.64393 17.5556H5.64079ZM15.4636 6.299L16.347 7.18283L7.02433 16.5215L3.4899 12.9804L12.8125 3.64138L13.696 4.52521L14.1352 4.97019L15.0187 5.85402L15.4636 6.299ZM18.5575 4.96407L17.2304 6.299L13.696 2.75785L15.0231 1.42904C15.081 1.3709 15.1498 1.32464 15.2256 1.29316C15.3014 1.26168 15.3827 1.24542 15.4648 1.24542C15.5469 1.24542 15.6282 1.26168 15.704 1.29316C15.7798 1.32464 15.8486 1.3709 15.9065 1.42904L18.5575 4.08023C18.6748 4.19725 18.7409 4.35595 18.7415 4.52154C18.7421 4.68712 18.6771 4.84622 18.5606 4.96407H18.5575Z" fill="#34C783"/>
</g>
<defs>
<clipPath id="clip0">
<rect width="20" height="20" fill="white"/>
</clipPath>
</defs>
</svg>
