<svg xmlns="http://www.w3.org/2000/svg" width="21.22" height="25.782" viewBox="0 0 21.22 25.782">
	<metadata><?xpacket begin="﻿" id="W5M0MpCehiHzreSzNTczkc9d"?>
<x:xmpmeta xmlns:x="adobe:ns:meta/" x:xmptk="Adobe XMP Core 5.6-c138 79.159824, 2016/09/14-01:09:01				">
	 <rdf:RDF xmlns:rdf="http://www.w3.org/1999/02/22-rdf-syntax-ns#">
			<rdf:Description rdf:about=""/>
	 </rdf:RDF>
</x:xmpmeta>
																																																		
																																																		
																																																		
																																																		
																																																		
																																																		
																																																		
																																																		
																																																		
																																																		
																																																		
																																																		
																																																		
																																																		
																																																		
																																																		
																																																		
																																																		
																																																		
																																																		
													 
<?xpacket end="w"?></metadata>
<defs>
		<style>
			.cls-1 {
				fill: #fff;
				fill-rule: evenodd;
			}
		</style>
	</defs>
	<path class="cls-1" d="M1767.45,643.462c-0.04,1.057.5,1.441,1.33,1.1a4.207,4.207,0,0,0,.62-0.335q9.045-5.483,18.07-10.969c1.55-.944,1.56-1.955.01-2.894q-8.415-5.116-16.85-10.233c-0.59-.36-1.17-0.747-1.79-1.051a0.888,0.888,0,0,0-1.39.958,3.752,3.752,0,0,0,.06.47c0.45,2.575.89,5.155,1.37,7.725a17.36,17.36,0,0,1,.2,5.926c-0.29,1.852-.64,3.693-0.97,5.539C1767.88,641,1767.65,642.307,1767.45,643.462Z" transform="translate(-1767.44 -618.906)"/>
</svg>
