<!-- Generated by IcoMoon.io -->
<svg version="1.1" xmlns="http://www.w3.org/2000/svg" width="768" height="768" viewBox="0 0 768 768">
<title></title>
<g id="icomoon-ignore">
    <line stroke-width="1" x1="16" y1="0" x2="16" y2="768" stroke="#449FDB" opacity="0.3"></line>
    <line stroke-width="1" x1="32" y1="0" x2="32" y2="768" stroke="#449FDB" opacity="1"></line>
    <line stroke-width="1" x1="48" y1="0" x2="48" y2="768" stroke="#449FDB" opacity="0.3"></line>
    <line stroke-width="1" x1="64" y1="0" x2="64" y2="768" stroke="#449FDB" opacity="1"></line>
    <line stroke-width="1" x1="80" y1="0" x2="80" y2="768" stroke="#449FDB" opacity="0.3"></line>
    <line stroke-width="1" x1="96" y1="0" x2="96" y2="768" stroke="#449FDB" opacity="1"></line>
    <line stroke-width="1" x1="112" y1="0" x2="112" y2="768" stroke="#449FDB" opacity="0.3"></line>
    <line stroke-width="1" x1="128" y1="0" x2="128" y2="768" stroke="#449FDB" opacity="1"></line>
    <line stroke-width="1" x1="144" y1="0" x2="144" y2="768" stroke="#449FDB" opacity="0.3"></line>
    <line stroke-width="1" x1="160" y1="0" x2="160" y2="768" stroke="#449FDB" opacity="1"></line>
    <line stroke-width="1" x1="176" y1="0" x2="176" y2="768" stroke="#449FDB" opacity="0.3"></line>
    <line stroke-width="1" x1="192" y1="0" x2="192" y2="768" stroke="#449FDB" opacity="1"></line>
    <line stroke-width="1" x1="208" y1="0" x2="208" y2="768" stroke="#449FDB" opacity="0.3"></line>
    <line stroke-width="1" x1="224" y1="0" x2="224" y2="768" stroke="#449FDB" opacity="1"></line>
    <line stroke-width="1" x1="240" y1="0" x2="240" y2="768" stroke="#449FDB" opacity="0.3"></line>
    <line stroke-width="1" x1="256" y1="0" x2="256" y2="768" stroke="#449FDB" opacity="1"></line>
    <line stroke-width="1" x1="272" y1="0" x2="272" y2="768" stroke="#449FDB" opacity="0.3"></line>
    <line stroke-width="1" x1="288" y1="0" x2="288" y2="768" stroke="#449FDB" opacity="1"></line>
    <line stroke-width="1" x1="304" y1="0" x2="304" y2="768" stroke="#449FDB" opacity="0.3"></line>
    <line stroke-width="1" x1="320" y1="0" x2="320" y2="768" stroke="#449FDB" opacity="1"></line>
    <line stroke-width="1" x1="336" y1="0" x2="336" y2="768" stroke="#449FDB" opacity="0.3"></line>
    <line stroke-width="1" x1="352" y1="0" x2="352" y2="768" stroke="#449FDB" opacity="1"></line>
    <line stroke-width="1" x1="368" y1="0" x2="368" y2="768" stroke="#449FDB" opacity="0.3"></line>
    <line stroke-width="1" x1="384" y1="0" x2="384" y2="768" stroke="#449FDB" opacity="1"></line>
    <line stroke-width="1" x1="400" y1="0" x2="400" y2="768" stroke="#449FDB" opacity="0.3"></line>
    <line stroke-width="1" x1="416" y1="0" x2="416" y2="768" stroke="#449FDB" opacity="1"></line>
    <line stroke-width="1" x1="432" y1="0" x2="432" y2="768" stroke="#449FDB" opacity="0.3"></line>
    <line stroke-width="1" x1="448" y1="0" x2="448" y2="768" stroke="#449FDB" opacity="1"></line>
    <line stroke-width="1" x1="464" y1="0" x2="464" y2="768" stroke="#449FDB" opacity="0.3"></line>
    <line stroke-width="1" x1="480" y1="0" x2="480" y2="768" stroke="#449FDB" opacity="1"></line>
    <line stroke-width="1" x1="496" y1="0" x2="496" y2="768" stroke="#449FDB" opacity="0.3"></line>
    <line stroke-width="1" x1="512" y1="0" x2="512" y2="768" stroke="#449FDB" opacity="1"></line>
    <line stroke-width="1" x1="528" y1="0" x2="528" y2="768" stroke="#449FDB" opacity="0.3"></line>
    <line stroke-width="1" x1="544" y1="0" x2="544" y2="768" stroke="#449FDB" opacity="1"></line>
    <line stroke-width="1" x1="560" y1="0" x2="560" y2="768" stroke="#449FDB" opacity="0.3"></line>
    <line stroke-width="1" x1="576" y1="0" x2="576" y2="768" stroke="#449FDB" opacity="1"></line>
    <line stroke-width="1" x1="592" y1="0" x2="592" y2="768" stroke="#449FDB" opacity="0.3"></line>
    <line stroke-width="1" x1="608" y1="0" x2="608" y2="768" stroke="#449FDB" opacity="1"></line>
    <line stroke-width="1" x1="624" y1="0" x2="624" y2="768" stroke="#449FDB" opacity="0.3"></line>
    <line stroke-width="1" x1="640" y1="0" x2="640" y2="768" stroke="#449FDB" opacity="1"></line>
    <line stroke-width="1" x1="656" y1="0" x2="656" y2="768" stroke="#449FDB" opacity="0.3"></line>
    <line stroke-width="1" x1="672" y1="0" x2="672" y2="768" stroke="#449FDB" opacity="1"></line>
    <line stroke-width="1" x1="688" y1="0" x2="688" y2="768" stroke="#449FDB" opacity="0.3"></line>
    <line stroke-width="1" x1="704" y1="0" x2="704" y2="768" stroke="#449FDB" opacity="1"></line>
    <line stroke-width="1" x1="720" y1="0" x2="720" y2="768" stroke="#449FDB" opacity="0.3"></line>
    <line stroke-width="1" x1="736" y1="0" x2="736" y2="768" stroke="#449FDB" opacity="1"></line>
    <line stroke-width="1" x1="752" y1="0" x2="752" y2="768" stroke="#449FDB" opacity="0.3"></line>
    <line stroke-width="1" x1="0" y1="16" x2="768" y2="16" stroke="#449FDB" opacity="0.3"></line>
    <line stroke-width="1" x1="0" y1="32" x2="768" y2="32" stroke="#449FDB" opacity="1"></line>
    <line stroke-width="1" x1="0" y1="48" x2="768" y2="48" stroke="#449FDB" opacity="0.3"></line>
    <line stroke-width="1" x1="0" y1="64" x2="768" y2="64" stroke="#449FDB" opacity="1"></line>
    <line stroke-width="1" x1="0" y1="80" x2="768" y2="80" stroke="#449FDB" opacity="0.3"></line>
    <line stroke-width="1" x1="0" y1="96" x2="768" y2="96" stroke="#449FDB" opacity="1"></line>
    <line stroke-width="1" x1="0" y1="112" x2="768" y2="112" stroke="#449FDB" opacity="0.3"></line>
    <line stroke-width="1" x1="0" y1="128" x2="768" y2="128" stroke="#449FDB" opacity="1"></line>
    <line stroke-width="1" x1="0" y1="144" x2="768" y2="144" stroke="#449FDB" opacity="0.3"></line>
    <line stroke-width="1" x1="0" y1="160" x2="768" y2="160" stroke="#449FDB" opacity="1"></line>
    <line stroke-width="1" x1="0" y1="176" x2="768" y2="176" stroke="#449FDB" opacity="0.3"></line>
    <line stroke-width="1" x1="0" y1="192" x2="768" y2="192" stroke="#449FDB" opacity="1"></line>
    <line stroke-width="1" x1="0" y1="208" x2="768" y2="208" stroke="#449FDB" opacity="0.3"></line>
    <line stroke-width="1" x1="0" y1="224" x2="768" y2="224" stroke="#449FDB" opacity="1"></line>
    <line stroke-width="1" x1="0" y1="240" x2="768" y2="240" stroke="#449FDB" opacity="0.3"></line>
    <line stroke-width="1" x1="0" y1="256" x2="768" y2="256" stroke="#449FDB" opacity="1"></line>
    <line stroke-width="1" x1="0" y1="272" x2="768" y2="272" stroke="#449FDB" opacity="0.3"></line>
    <line stroke-width="1" x1="0" y1="288" x2="768" y2="288" stroke="#449FDB" opacity="1"></line>
    <line stroke-width="1" x1="0" y1="304" x2="768" y2="304" stroke="#449FDB" opacity="0.3"></line>
    <line stroke-width="1" x1="0" y1="320" x2="768" y2="320" stroke="#449FDB" opacity="1"></line>
    <line stroke-width="1" x1="0" y1="336" x2="768" y2="336" stroke="#449FDB" opacity="0.3"></line>
    <line stroke-width="1" x1="0" y1="352" x2="768" y2="352" stroke="#449FDB" opacity="1"></line>
    <line stroke-width="1" x1="0" y1="368" x2="768" y2="368" stroke="#449FDB" opacity="0.3"></line>
    <line stroke-width="1" x1="0" y1="384" x2="768" y2="384" stroke="#449FDB" opacity="1"></line>
    <line stroke-width="1" x1="0" y1="400" x2="768" y2="400" stroke="#449FDB" opacity="0.3"></line>
    <line stroke-width="1" x1="0" y1="416" x2="768" y2="416" stroke="#449FDB" opacity="1"></line>
    <line stroke-width="1" x1="0" y1="432" x2="768" y2="432" stroke="#449FDB" opacity="0.3"></line>
    <line stroke-width="1" x1="0" y1="448" x2="768" y2="448" stroke="#449FDB" opacity="1"></line>
    <line stroke-width="1" x1="0" y1="464" x2="768" y2="464" stroke="#449FDB" opacity="0.3"></line>
    <line stroke-width="1" x1="0" y1="480" x2="768" y2="480" stroke="#449FDB" opacity="1"></line>
    <line stroke-width="1" x1="0" y1="496" x2="768" y2="496" stroke="#449FDB" opacity="0.3"></line>
    <line stroke-width="1" x1="0" y1="512" x2="768" y2="512" stroke="#449FDB" opacity="1"></line>
    <line stroke-width="1" x1="0" y1="528" x2="768" y2="528" stroke="#449FDB" opacity="0.3"></line>
    <line stroke-width="1" x1="0" y1="544" x2="768" y2="544" stroke="#449FDB" opacity="1"></line>
    <line stroke-width="1" x1="0" y1="560" x2="768" y2="560" stroke="#449FDB" opacity="0.3"></line>
    <line stroke-width="1" x1="0" y1="576" x2="768" y2="576" stroke="#449FDB" opacity="1"></line>
    <line stroke-width="1" x1="0" y1="592" x2="768" y2="592" stroke="#449FDB" opacity="0.3"></line>
    <line stroke-width="1" x1="0" y1="608" x2="768" y2="608" stroke="#449FDB" opacity="1"></line>
    <line stroke-width="1" x1="0" y1="624" x2="768" y2="624" stroke="#449FDB" opacity="0.3"></line>
    <line stroke-width="1" x1="0" y1="640" x2="768" y2="640" stroke="#449FDB" opacity="1"></line>
    <line stroke-width="1" x1="0" y1="656" x2="768" y2="656" stroke="#449FDB" opacity="0.3"></line>
    <line stroke-width="1" x1="0" y1="672" x2="768" y2="672" stroke="#449FDB" opacity="1"></line>
    <line stroke-width="1" x1="0" y1="688" x2="768" y2="688" stroke="#449FDB" opacity="0.3"></line>
    <line stroke-width="1" x1="0" y1="704" x2="768" y2="704" stroke="#449FDB" opacity="1"></line>
    <line stroke-width="1" x1="0" y1="720" x2="768" y2="720" stroke="#449FDB" opacity="0.3"></line>
    <line stroke-width="1" x1="0" y1="736" x2="768" y2="736" stroke="#449FDB" opacity="1"></line>
    <line stroke-width="1" x1="0" y1="752" x2="768" y2="752" stroke="#449FDB" opacity="0.3"></line>
</g>
<path d="M158.216 702.664c-1.093 28.859 13.652 39.344 36.312 30.032 6.542-2.885 12.101-5.935 17.36-9.413l-0.427 0.266q246.952-149.701 493.36-299.486c42.318-25.774 42.593-53.377 0.272-79.013q-229.753-139.681-460.050-279.389c-16.109-9.828-31.945-20.396-48.872-28.695-4.031-3.098-9.149-4.966-14.702-4.966-13.39 0-24.245 10.855-24.245 24.245 0 2.452 0.364 4.821 1.041 7.049l-0.044-0.173c0.311 4.784 0.894 9.182 1.745 13.489l-0.113-0.652c12.286 70.304 24.299 140.745 37.405 210.915 6.332 29.054 9.958 62.428 9.958 96.649 0 22.977-1.636 45.573-4.794 67.677l0.297-2.533c-7.918 50.564-17.474 100.828-26.484 151.231-6.279 35.549-12.565 71.232-18.020 102.767z"></path>
</svg>
