<svg xmlns="http://www.w3.org/2000/svg" width="22.197" height="27.009" viewBox="0 0 21.188 25.782">
  <metadata><?xpacket begin="﻿" id="W5M0MpCehiHzreSzNTczkc9d"?>
<x:xmpmeta xmlns:x="adobe:ns:meta/" x:xmptk="Adobe XMP Core 5.6-c138 79.159824, 2016/09/14-01:09:01        ">
   <rdf:RDF xmlns:rdf="http://www.w3.org/1999/02/22-rdf-syntax-ns#">
      <rdf:Description rdf:about=""/>
   </rdf:RDF>
</x:xmpmeta>
                                                                                                    
                                                                                                    
                                                                                                    
                                                                                                    
                                                                                                    
                                                                                                    
                                                                                                    
                                                                                                    
                                                                                                    
                                                                                                    
                                                                                                    
                                                                                                    
                                                                                                    
                                                                                                    
                                                                                                    
                                                                                                    
                                                                                                    
                                                                                                    
                                                                                                    
                                                                                                    
                           
<?xpacket end="w"?></metadata>
<defs>
    <style>
      .cls-1 {
        fill: #fff;
        fill-rule: evenodd;
      }
    </style>
  </defs>
  <path class="cls-1" d="M149.549,643.462c0.039,1.057-.5,1.441-1.331,1.1a4.509,4.509,0,0,1-.623-0.335q-9.033-5.483-18.063-10.969c-1.555-.944-1.56-1.955-0.014-2.894q8.425-5.116,16.851-10.233c0.593-.36,1.173-0.747,1.793-1.051a0.885,0.885,0,0,1,1.386.958,4.4,4.4,0,0,1-.057.47c-0.454,2.575-.887,5.155-1.372,7.725a17.261,17.261,0,0,0-.2,5.926c0.291,1.852.648,3.693,0.974,5.539C149.121,641,149.347,642.307,149.549,643.462Z" transform="translate(-128.375 -618.906)"/>
</svg>
