<svg xmlns="http://www.w3.org/2000/svg" width="23" height="19" viewBox="0 0 23 19">
  <metadata><?xpacket begin="﻿" id="W5M0MpCehiHzreSzNTczkc9d"?>
<x:xmpmeta xmlns:x="adobe:ns:meta/" x:xmptk="Adobe XMP Core 5.6-c138 79.159824, 2016/09/14-01:09:01        ">
   <rdf:RDF xmlns:rdf="http://www.w3.org/1999/02/22-rdf-syntax-ns#">
      <rdf:Description rdf:about=""/>
   </rdf:RDF>
</x:xmpmeta>
                                                                                                    
                                                                                                    
                                                                                                    
                                                                                                    
                                                                                                    
                                                                                                    
                                                                                                    
                                                                                                    
                                                                                                    
                                                                                                    
                                                                                                    
                                                                                                    
                                                                                                    
                                                                                                    
                                                                                                    
                                                                                                    
                                                                                                    
                                                                                                    
                                                                                                    
                                                                                                    
                           
<?xpacket end="w"?></metadata>
<defs>
    <style>
      .cls-1 {
        fill: #46b846;
        fill-rule: evenodd;
      }
    </style>
  </defs>
  <path class="cls-1" d="M1221.7,1412.96h-3.16a0.976,0.976,0,0,1,0-1.95h3.16a0.429,0.429,0,0,0,.42-0.47l-0.11-1.68a0.825,0.825,0,0,0-.3-0.57,4.868,4.868,0,0,0-1.11-.59l-0.04-.01a2.352,2.352,0,0,1-1.47-2.19,2.412,2.412,0,0,1,.33-1.21,3.494,3.494,0,0,0,.4-1.79,1.4,1.4,0,0,0-.66-1.33,1.853,1.853,0,0,0-.82-0.22h-0.04a1.854,1.854,0,0,0-.83.22,1.4,1.4,0,0,0-.66,1.33,4.071,4.071,0,0,0,.05.72,0.981,0.981,0,0,1-.79,1.12,0.952,0.952,0,0,1-1.07-.82,6.539,6.539,0,0,1-.07-1.02,3.363,3.363,0,0,1,1.64-3.04,3.526,3.526,0,0,1,1.73-.46h0.04a3.5,3.5,0,0,1,1.72.46,3.363,3.363,0,0,1,1.64,3.04,5.433,5.433,0,0,1-.61,2.68,0.585,0.585,0,0,0-.12.32,0.4,0.4,0,0,0,.32.39,6.489,6.489,0,0,1,1.54.84,2.773,2.773,0,0,1,1.05,1.99l0.11,1.68a2.4,2.4,0,0,1-.61,1.8A2.242,2.242,0,0,1,1221.7,1412.96Zm-12.99-16.94a2.37,2.37,0,0,1,2.45,2.56c0,2.58-1.03,2.67-1.03,4.23a2.928,2.928,0,0,0,1.88,2.77,6.823,6.823,0,0,1,1.67.89,1.457,1.457,0,0,1,.56,1.07l0.17,2.38a0.977,0.977,0,0,1-.95,1.06h-9.56a0.971,0.971,0,0,1-.95-1.06l0.16-2.38a1.492,1.492,0,0,1,.56-1.07,7.144,7.144,0,0,1,1.68-.89,2.928,2.928,0,0,0,1.88-2.77c0-1.56-1.04-1.65-1.04-4.23a2.376,2.376,0,0,1,2.46-2.56h0.06m0-2.02h-0.06a4.748,4.748,0,0,0-2.27.6,4.073,4.073,0,0,0-1.51,1.49,4.919,4.919,0,0,0-.62,2.49,7.3,7.3,0,0,0,.83,3.62,1.157,1.157,0,0,1,.21.61,0.936,0.936,0,0,1-.68.9,8.872,8.872,0,0,0-2.1,1.14,3.527,3.527,0,0,0-1.34,2.54l-0.16,2.38a3.076,3.076,0,0,0,.77,2.27,2.847,2.847,0,0,0,2.12.96h9.56a2.864,2.864,0,0,0,2.12-.96,3.076,3.076,0,0,0,.77-2.27l-0.17-2.38a3.527,3.527,0,0,0-1.34-2.54,8.677,8.677,0,0,0-2.1-1.14,0.926,0.926,0,0,1-.67-0.9,1.157,1.157,0,0,1,.21-0.61,7.3,7.3,0,0,0,.83-3.62,4.825,4.825,0,0,0-.63-2.49,3.974,3.974,0,0,0-1.5-1.49,4.773,4.773,0,0,0-2.27-.6h0Z" transform="translate(-1201 -1394)"/>
</svg>
