<svg xmlns="http://www.w3.org/2000/svg" width="22" height="22" viewBox="0 0 22 22">
  <metadata><?xpacket begin="﻿" id="W5M0MpCehiHzreSzNTczkc9d"?>
<x:xmpmeta xmlns:x="adobe:ns:meta/" x:xmptk="Adobe XMP Core 5.6-c138 79.159824, 2016/09/14-01:09:01        ">
   <rdf:RDF xmlns:rdf="http://www.w3.org/1999/02/22-rdf-syntax-ns#">
      <rdf:Description rdf:about=""/>
   </rdf:RDF>
</x:xmpmeta>
                                                                                                    
                                                                                                    
                                                                                                    
                                                                                                    
                                                                                                    
                                                                                                    
                                                                                                    
                                                                                                    
                                                                                                    
                                                                                                    
                                                                                                    
                                                                                                    
                                                                                                    
                                                                                                    
                                                                                                    
                                                                                                    
                                                                                                    
                                                                                                    
                                                                                                    
                                                                                                    
                           
<?xpacket end="w"?></metadata>
<defs>
    <style>
      .cls-1 {
        fill: #1a70c5;
        fill-rule: evenodd;
      }
    </style>
  </defs>
  <path class="cls-1" d="M1118.99,152a1,1,0,1,1,0-2,3.984,3.984,0,0,0,.54-7.934l-0.62-.084-0.19-.584a5,5,0,0,0-9.73,1.608v1h-1a3,3,0,1,0,0,6,1,1,0,1,1,0,2,5,5,0,0,1-.94-9.9,6.994,6.994,0,0,1,13.34-1.9A5.981,5.981,0,0,1,1118.99,152Zm-2-3a1.006,1.006,0,0,1-.71-0.293l-2.29-2.291-2.29,2.291a1,1,0,1,1-1.42-1.413l2.29-2.291a2.006,2.006,0,0,1,2.83,0l2.29,2.291A1,1,0,0,1,1116.99,149Zm-3,8.992a1,1,0,0,1-1-1V147a1,1,0,0,1,2,0V157A1,1,0,0,1,1113.99,158Z" transform="translate(-1103 -136)"/>
</svg>
