<svg width="20" height="20" viewBox="0 0 20 20" fill="none" xmlns="http://www.w3.org/2000/svg">
<mask id="mask0" mask-type="alpha" maskUnits="userSpaceOnUse" x="0" y="4" width="20" height="12">
<path fill-rule="evenodd" clip-rule="evenodd" d="M19.8035 10C17.0054 13.5095 13.6428 15.5556 10.0257 15.5556C6.40864 15.5556 3.04596 13.5095 0.247925 10C3.04596 6.49051 6.40864 4.44446 10.0257 4.44446C13.6428 4.44446 17.0054 6.49051 19.8035 10Z" fill="white"/>
</mask>
<g mask="url(#mask0)">
<path d="M19.8035 9.99999L20.4985 10.5541L20.9403 9.99999L20.4985 9.44585L19.8035 9.99999ZM0.247906 9.99999L-0.447121 9.44585L-0.888916 9.99999L-0.447121 10.5541L0.247906 9.99999ZM19.1084 9.44585C16.4123 12.8276 13.2807 14.6667 10.0257 14.6667V16.4444C14.0049 16.4444 17.5986 14.1914 20.4985 10.5541L19.1084 9.44585ZM10.0257 14.6667C6.77071 14.6667 3.63911 12.8276 0.942933 9.44585L-0.447121 10.5541C2.45278 14.1914 6.04648 16.4444 10.0257 16.4444V14.6667ZM0.942933 10.5541C3.63911 7.17237 6.77071 5.33332 10.0257 5.33332V3.55554C6.04648 3.55554 2.45278 5.80859 -0.447121 9.44585L0.942933 10.5541ZM10.0257 5.33332C13.2807 5.33332 16.4123 7.17237 19.1084 10.5541L20.4985 9.44585C17.5986 5.80859 14.0049 3.55554 10.0257 3.55554V5.33332Z" fill="black"/>
<path d="M10.0257 12.8889C11.4984 12.8889 12.6923 11.695 12.6923 10.2222C12.6923 8.74945 11.4984 7.55554 10.0257 7.55554C8.55292 7.55554 7.35901 8.74945 7.35901 10.2222C7.35901 11.695 8.55292 12.8889 10.0257 12.8889Z" stroke="black"/>
</g>
</svg>
